<svg height="279.44" viewBox="0 0 362.09 279.44" width="362.09" xmlns="http://www.w3.org/2000/svg" xmlns:xlink="http://www.w3.org/1999/xlink"><clipPath id="a" transform="translate(-135.17 -258.52)"><path d="m178.06 305.27h237.14v16.89h-237.14z"/></clipPath><path d="m256.74 536.06c51.26 12.14 102.44-37.63 114.49-44.22s58.22-25.35 78.28-35.95 63.73-41.72 41.69-90.06-61.66-61.61-100.93-66.36-60.84-21.56-78.18-30.66-64.9-25-94.92 20.26-2.67 37.26-60 78.44 14.83 92.4 22.83 99.91 21.28 55.53 76.7 68.64" fill="#f5f5f5" transform="translate(-135.17 -258.52)"/><path d="m52.82 122.74v41.76" fill="none" opacity=".44" stroke="#fff"/><path d="m50.34 69.96h237.14v186.48h-237.14z" fill="#ed1c24"/><path d="m50.84 70.46h236.14v185.48h-236.14z" fill="none" stroke="#ed1c24"/><path d="m42.89 64.37h237.14v186.48h-237.14z" fill="#fff"/><path d="m43.39 64.87h236.14v185.48h-236.14z" fill="none" stroke="#ed1c24"/><path d="m43.08 158.23h236.64" fill="none" stroke="#ed1c24"/><path d="m43.42 110.9h236.65" fill="none" stroke="#ed1c24"/><path d="m296.57 322.76v186.61" fill="none" stroke="#ed1c24" transform="translate(-135.17 -258.52)"/><path d="m237.39 322.62v186.75" fill="none" stroke="#ed1c24" transform="translate(-135.17 -258.52)"/><path d="m220.56 63.49v187.36" fill="none" stroke="#ed1c24"/><path d="m43.08 204.87h236.64" fill="none" stroke="#ed1c24"/><g transform="translate(-135.17 -258.52)"><path d="m309.71 338.13h31.91a.94.94 0 0 1 .93.94.93.93 0 0 1 -.93.93h-31.91a.93.93 0 0 1 -.93-.93.93.93 0 0 1 .93-.94z" fill="#ed1c24"/><path d="m309.71 345.58h31.91a.94.94 0 0 1 .93.94.93.93 0 0 1 -.93.93h-31.91a.93.93 0 0 1 -.93-.93.93.93 0 0 1 .93-.94z" fill="#ed1c24"/><path d="m309.71 352.1h31.91a.93.93 0 0 1 .93.93.93.93 0 0 1 -.93.93h-31.91a.92.92 0 0 1 -.93-.93.93.93 0 0 1 .93-.93z" fill="#ed1c24"/><path d="m369.3 338.13h31.91a.93.93 0 0 1 .93.94.93.93 0 0 1 -.93.93h-31.91a.93.93 0 0 1 -.93-.93.94.94 0 0 1 .93-.94z" fill="#ed1c24"/><path d="m369.3 345.58h31.91a.93.93 0 0 1 .93.94.93.93 0 0 1 -.93.93h-31.91a.93.93 0 0 1 -.93-.93.94.94 0 0 1 .93-.94z" fill="#ed1c24"/><path d="m369.3 352.1h31.91a.93.93 0 0 1 .93.93.92.92 0 0 1 -.93.93h-31.91a.93.93 0 0 1 -.93-.93.93.93 0 0 1 .93-.93z" fill="#ed1c24"/><path d="m205.19 445.84-5.13-5.12a.8.8 0 0 1 0-1.11l1.12-1.12a.78.78 0 0 1 1.11 0l3.45 3.45 7.39-7.39a.8.8 0 0 1 1.11 0l1.11 1.12a.78.78 0 0 1 0 1.11l-9 9.06a.81.81 0 0 1 -1.12 0z" fill="#ed1c24"/><path d="m383 398.65-5.13-5.11a.79.79 0 0 1 0-1.12l1.12-1.11a.78.78 0 0 1 1.11 0l3.45 3.45 7.38-7.39a.79.79 0 0 1 1.12 0l1.11 1.11a.79.79 0 0 1 0 1.12l-9.05 9a.79.79 0 0 1 -1.12 0z" fill="#ed1c24"/><path d="m205.19 398.65-5.13-5.11a.81.81 0 0 1 0-1.12l1.12-1.11a.78.78 0 0 1 1.11 0l3.45 3.45 7.39-7.39a.78.78 0 0 1 1.11 0l1.11 1.11a.79.79 0 0 1 0 1.12l-9 9a.79.79 0 0 1 -1.12 0z" fill="#ed1c24"/><path d="m323.44 398.65-5.12-5.11a.79.79 0 0 1 0-1.12l1.11-1.11a.79.79 0 0 1 1.12 0l3.44 3.45 7.39-7.39a.79.79 0 0 1 1.12 0l1.11 1.11a.79.79 0 0 1 0 1.12l-9.06 9a.78.78 0 0 1 -1.11 0z" fill="#ed1c24"/><path d="m264.78 445.84-5.12-5.12a.78.78 0 0 1 0-1.11l1.11-1.12a.79.79 0 0 1 1.12 0l3.44 3.45 7.4-7.39a.78.78 0 0 1 1.11 0l1.12 1.11a.81.81 0 0 1 0 1.12l-9.06 9.05a.79.79 0 0 1 -1.12 0z" fill="#ed1c24"/><path d="m383 493-5.13-5.11a.79.79 0 0 1 0-1.12l1.12-1.11a.78.78 0 0 1 1.11 0l3.45 3.45 7.38-7.39a.79.79 0 0 1 1.12 0l1.11 1.11a.79.79 0 0 1 0 1.12l-9.05 9a.79.79 0 0 1 -1.12 0z" fill="#ed1c24"/></g><g clip-path="url(#a)"><path d="m42.89 46.75h237.14v16.89h-237.14z" fill="#fff"/><path d="m43.39 47.25h236.14v15.89h-236.14z" fill="none" stroke="#ed1c24"/><g fill="#ed1c24"><circle cx="19.48" cy="47.61" r="1.32"/><circle cx="29.15" cy="47.61" r="1.32"/><circle cx="37.95" cy="47.61" r="1.32"/><circle cx="47.62" cy="47.61" r="1.32"/><circle cx="56.41" cy="47.61" r="1.32"/><circle cx="66.08" cy="47.61" r="1.32"/><ellipse cx="75.32" cy="47.61" rx="1.76" ry="1.32"/><circle cx="84.55" cy="47.61" r="1.32"/><circle cx="94.22" cy="47.61" r="1.32"/><circle cx="103.02" cy="47.61" r="1.32"/><circle cx="112.69" cy="47.61" r="1.32"/><ellipse cx="121.92" cy="47.61" rx="1.76" ry="1.32"/><circle cx="131.15" cy="47.61" r="1.32"/><circle cx="140.82" cy="47.61" r="1.32"/><circle cx="149.62" cy="47.61" r="1.32"/><circle cx="159.29" cy="47.61" r="1.32"/><ellipse cx="168.52" cy="47.61" rx="1.76" ry="1.32"/><circle cx="177.75" cy="47.61" r="1.32"/><circle cx="187.43" cy="47.61" r="1.32"/><circle cx="196.22" cy="47.61" r="1.32"/><circle cx="205.89" cy="47.61" r="1.32"/><circle cx="214.68" cy="47.61" r="1.32"/><circle cx="224.36" cy="47.61" r="1.32"/><circle cx="234.03" cy="47.61" r="1.32"/><circle cx="242.82" cy="47.61" r="1.32"/><circle cx="252.49" cy="47.61" r="1.32"/><circle cx="261.29" cy="47.61" r="1.32"/><circle cx="270.96" cy="47.61" r="1.32"/><ellipse cx="280.19" cy="47.61" rx="1.76" ry="1.32"/><circle cx="289.42" cy="47.61" r="1.32"/><circle cx="299.1" cy="47.61" r="1.32"/><circle cx="307.89" cy="47.61" r="1.32"/><ellipse cx="23" cy="55.08" rx="1.32" ry="1.76"/><ellipse cx="32.67" cy="55.08" rx="1.32" ry="1.76"/><circle cx="41.9" cy="55.08" r="1.76"/><ellipse cx="51.14" cy="55.08" rx="1.32" ry="1.76"/><ellipse cx="60.81" cy="55.08" rx="1.32" ry="1.76"/><ellipse cx="69.6" cy="55.08" rx="1.32" ry="1.76"/><ellipse cx="79.27" cy="55.08" rx="1.32" ry="1.76"/><ellipse cx="88.07" cy="55.08" rx="1.32" ry="1.76"/><ellipse cx="97.74" cy="55.08" rx="1.32" ry="1.76"/><circle cx="106.97" cy="55.08" r="1.76"/><ellipse cx="116.2" cy="55.08" rx="1.32" ry="1.76"/><ellipse cx="125.88" cy="55.08" rx="1.32" ry="1.76"/><ellipse cx="134.67" cy="55.08" rx="1.32" ry="1.76"/><ellipse cx="144.34" cy="55.08" rx="1.32" ry="1.76"/><circle cx="153.57" cy="55.08" r="1.76"/><ellipse cx="162.81" cy="55.08" rx="1.32" ry="1.76"/><ellipse cx="172.48" cy="55.08" rx="1.32" ry="1.76"/><ellipse cx="181.27" cy="55.08" rx="1.32" ry="1.76"/><ellipse cx="190.94" cy="55.08" rx="1.32" ry="1.76"/><circle cx="200.18" cy="55.08" r="1.76"/><ellipse cx="209.41" cy="55.08" rx="1.32" ry="1.76"/><ellipse cx="219.08" cy="55.08" rx="1.32" ry="1.76"/><ellipse cx="227.87" cy="55.08" rx="1.32" ry="1.76"/><ellipse cx="237.55" cy="55.08" rx="1.32" ry="1.76"/><circle cx="246.78" cy="55.08" r="1.76"/><ellipse cx="256.01" cy="55.08" rx="1.32" ry="1.76"/><ellipse cx="265.68" cy="55.08" rx="1.32" ry="1.76"/><ellipse cx="274.48" cy="55.08" rx="1.32" ry="1.76"/><ellipse cx="284.15" cy="55.08" rx="1.32" ry="1.76"/><ellipse cx="292.94" cy="55.08" rx="1.32" ry="1.76"/><ellipse cx="302.61" cy="55.08" rx="1.32" ry="1.76"/><circle cx="311.85" cy="55.08" r="1.76"/><circle cx="19.48" cy="62.56" r="1.32"/><circle cx="29.15" cy="62.56" r="1.32"/><circle cx="37.95" cy="62.56" r="1.32"/><circle cx="47.62" cy="62.56" r="1.32"/><circle cx="56.41" cy="62.56" r="1.32"/><circle cx="66.08" cy="62.56" r="1.32"/><ellipse cx="75.32" cy="62.56" rx="1.76" ry="1.32"/><circle cx="84.55" cy="62.56" r="1.32"/><circle cx="94.22" cy="62.56" r="1.32"/><circle cx="103.02" cy="62.56" r="1.32"/><circle cx="112.69" cy="62.56" r="1.32"/><ellipse cx="121.92" cy="62.56" rx="1.76" ry="1.32"/><circle cx="131.15" cy="62.56" r="1.32"/><circle cx="140.82" cy="62.56" r="1.32"/><circle cx="149.62" cy="62.56" r="1.32"/><circle cx="159.29" cy="62.56" r="1.32"/><ellipse cx="168.52" cy="62.56" rx="1.76" ry="1.32"/><circle cx="177.75" cy="62.56" r="1.32"/><circle cx="187.43" cy="62.56" r="1.32"/><circle cx="196.22" cy="62.56" r="1.32"/><circle cx="205.89" cy="62.56" r="1.32"/><circle cx="214.68" cy="62.56" r="1.32"/><circle cx="224.36" cy="62.56" r="1.32"/><circle cx="234.03" cy="62.56" r="1.32"/><circle cx="242.82" cy="62.56" r="1.32"/><circle cx="252.49" cy="62.56" r="1.32"/><circle cx="261.29" cy="62.56" r="1.32"/><circle cx="270.96" cy="62.56" r="1.32"/><ellipse cx="280.19" cy="62.56" rx="1.76" ry="1.32"/><circle cx="289.42" cy="62.56" r="1.32"/><circle cx="299.1" cy="62.56" r="1.32"/><circle cx="307.89" cy="62.56" r="1.32"/></g></g><path d="m250.73 338.13h31.91a.94.94 0 0 1 .93.94.93.93 0 0 1 -.93.93h-31.91a.93.93 0 0 1 -.93-.93.93.93 0 0 1 .93-.94z" fill="#ed1c24" transform="translate(-135.17 -258.52)"/><path d="m250.73 345.58h31.91a.94.94 0 0 1 .93.94.93.93 0 0 1 -.93.93h-31.91a.93.93 0 0 1 -.93-.93.93.93 0 0 1 .93-.94z" fill="#ed1c24" transform="translate(-135.17 -258.52)"/><path d="m250.73 352.1h31.91a.93.93 0 0 1 .93.93.93.93 0 0 1 -.93.93h-31.91a.92.92 0 0 1 -.93-.93.93.93 0 0 1 .93-.93z" fill="#ed1c24" transform="translate(-135.17 -258.52)"/><path d="m191.89 338.13h31.91a.93.93 0 0 1 .93.94.93.93 0 0 1 -.93.93h-31.91a.93.93 0 0 1 -.93-.93.94.94 0 0 1 .93-.94z" fill="#ed1c24" transform="translate(-135.17 -258.52)"/><path d="m191.89 345.58h31.91a.93.93 0 0 1 .93.94.93.93 0 0 1 -.93.93h-31.91a.93.93 0 0 1 -.93-.93.94.94 0 0 1 .93-.94z" fill="#ed1c24" transform="translate(-135.17 -258.52)"/><path d="m191.89 352.1h31.91a.93.93 0 0 1 .93.93.92.92 0 0 1 -.93.93h-31.91a.93.93 0 0 1 -.89-.96.93.93 0 0 1 .89-.9z" fill="#ed1c24" transform="translate(-135.17 -258.52)"/><path d="m323.44 445.84-5.12-5.12a.78.78 0 0 1 0-1.11l1.11-1.12a.79.79 0 0 1 1.12 0l3.44 3.45 7.39-7.39a.8.8 0 0 1 1.11 0l1.12 1.12a.78.78 0 0 1 0 1.11l-9.06 9.06a.8.8 0 0 1 -1.11 0z" fill="#ed1c24" transform="translate(-135.17 -258.52)"/><path d="m264.78 493-5.12-5.11a.79.79 0 0 1 0-1.12l1.11-1.11a.79.79 0 0 1 1.12 0l3.44 3.45 7.4-7.4a.78.78 0 0 1 1.11 0l1.12 1.12a.8.8 0 0 1 0 1.11l-9.06 9.06a.79.79 0 0 1 -1.12 0z" fill="#ed1c24" transform="translate(-135.17 -258.52)"/><path d="m42.89 62.9h237.14v2.2h-237.14z" fill="#ed1c24"/></svg>