<svg id="Logo_Ministerio-de-Salud_202003_Horizontal_RGB_Standard" xmlns="http://www.w3.org/2000/svg" width="119.802" height="49.578" viewBox="0 0 119.802 49.578">
  <path id="Path_510" data-name="Path 510" d="M890.644,410.072a1.369,1.369,0,0,1-.146.635,1.416,1.416,0,0,1-.411.487,1.987,1.987,0,0,1-.62.314,2.58,2.58,0,0,1-.773.111,1.76,1.76,0,0,1-1.011-.279.915.915,0,0,1-.411-.808V410.5a1,1,0,0,1,.446-.878,2.177,2.177,0,0,1,1.24-.307,4.932,4.932,0,0,1,.927.084,4.267,4.267,0,0,1,.76.209Zm1.631,2.662v-4.362a3.148,3.148,0,0,0-.795-2.292,3.267,3.267,0,0,0-2.439-.815,6.226,6.226,0,0,0-1.549.167,7.669,7.669,0,0,0-1.254.446l.46,1.349a7.38,7.38,0,0,1,.989-.334,4.5,4.5,0,0,1,1.116-.125,1.993,1.993,0,0,1,1.344.4,1.471,1.471,0,0,1,.468,1.17v.181a7,7,0,0,0-.9-.222,6.5,6.5,0,0,0-1.136-.084,4.589,4.589,0,0,0-1.191.147,2.761,2.761,0,0,0-.95.439,2.032,2.032,0,0,0-.62.738,2.3,2.3,0,0,0-.223,1.046v.028a2.13,2.13,0,0,0,.216.983,2.161,2.161,0,0,0,.571.71,2.471,2.471,0,0,0,.83.432,3.362,3.362,0,0,0,1,.146,3.033,3.033,0,0,0,1.422-.306,3.155,3.155,0,0,0,.964-.751v.906Zm-8.432,0v-7.358h-1.7v7.358Zm.054-8.487v-1.6h-1.826v1.6Zm-3.456,7.275-1.018-1a4.035,4.035,0,0,1-.857.663,2.1,2.1,0,0,1-1.049.257,2.075,2.075,0,0,1-.892-.188,2.161,2.161,0,0,1-.7-.508,2.267,2.267,0,0,1-.453-.75,2.669,2.669,0,0,1-.16-.935,2.558,2.558,0,0,1,.16-.912,2.451,2.451,0,0,1,.439-.746,2.075,2.075,0,0,1,.67-.509,1.934,1.934,0,0,1,.85-.188,2.1,2.1,0,0,1,1.08.258,3.922,3.922,0,0,1,.829.663l1.045-1.129a4.105,4.105,0,0,0-1.206-.92,4.064,4.064,0,0,0-4.477.792,3.875,3.875,0,0,0-.8,1.227,3.83,3.83,0,0,0-.288,1.49,3.773,3.773,0,0,0,3.819,3.819,3.648,3.648,0,0,0,1.769-.383A4.648,4.648,0,0,0,880.441,411.522ZM867,408.59a1.858,1.858,0,0,1,.456-1.34,1.573,1.573,0,0,1,1.189-.48,1.45,1.45,0,0,1,1.154.467,1.953,1.953,0,0,1,.406,1.326v4.171h1.7v-4.682a3,3,0,0,0-.681-2.063,2.756,2.756,0,0,0-3.329-.372,2.526,2.526,0,0,0-.5.413,4.173,4.173,0,0,0-.4.5v-1.154h-1.7v7.358H867Zm-8.919-.05a2.414,2.414,0,0,1,.62-1.4A1.708,1.708,0,0,1,860,406.6a1.749,1.749,0,0,1,.745.153,1.812,1.812,0,0,1,.565.412,1.94,1.94,0,0,1,.375.613,2.871,2.871,0,0,1,.181.76Zm.013,1.115h5.407c.009-.083.016-.162.02-.236s.007-.15.007-.224a5.142,5.142,0,0,0-.222-1.519,3.733,3.733,0,0,0-.662-1.267,3.179,3.179,0,0,0-1.1-.865,3.488,3.488,0,0,0-1.54-.32,3.374,3.374,0,0,0-1.449.306,3.611,3.611,0,0,0-1.136.829,3.765,3.765,0,0,0-.745,1.221,4.168,4.168,0,0,0-.264,1.491,4.026,4.026,0,0,0,.293,1.568,3.555,3.555,0,0,0,2,1.987,3.934,3.934,0,0,0,1.484.278,3.786,3.786,0,0,0,1.749-.376,4.073,4.073,0,0,0,1.261-1l-.99-.878a3.549,3.549,0,0,1-.9.652,2.471,2.471,0,0,1-1.088.223,2.093,2.093,0,0,1-1.394-.481,2.221,2.221,0,0,1-.726-1.386Zm-5.129-.6a2.582,2.582,0,0,1-.174.977,2.386,2.386,0,0,1-.464.746,1.991,1.991,0,0,1-.681.48,2.035,2.035,0,0,1-1.619,0,2.077,2.077,0,0,1-.673-.474,2.2,2.2,0,0,1-.458-.745,2.754,2.754,0,0,1-.166-.984,2.784,2.784,0,0,1,.166-1,2.206,2.206,0,0,1,.458-.747,2.02,2.02,0,0,1,.673-.467,2.089,2.089,0,0,1,.813-.159,2.032,2.032,0,0,1,1.487.647,2.4,2.4,0,0,1,.464.746,2.582,2.582,0,0,1,.175.974Zm1.672,3.68V402.56h-1.7v3.958a4.143,4.143,0,0,0-1-.906,2.709,2.709,0,0,0-1.5-.39,3.35,3.35,0,0,0-1.273.25,3.121,3.121,0,0,0-1.092.745,3.741,3.741,0,0,0-.757,1.205,4.342,4.342,0,0,0-.286,1.63,4.266,4.266,0,0,0,.292,1.631,3.83,3.83,0,0,0,.765,1.205,3.134,3.134,0,0,0,1.085.747,3.32,3.32,0,0,0,1.266.25,2.631,2.631,0,0,0,1.493-.4,3.8,3.8,0,0,0,1.008-.976v1.226Zm-9.49,0v-7.36h-1.7v7.358Zm.056-8.487v-1.6h-1.826v1.6Zm-3.637,6.313v-.027a1.617,1.617,0,0,0-.209-.85,2.066,2.066,0,0,0-.536-.592,3.423,3.423,0,0,0-.732-.411q-.4-.167-.808-.293-.321-.1-.62-.2a4.063,4.063,0,0,1-.53-.223,1.391,1.391,0,0,1-.37-.264.486.486,0,0,1-.138-.342v-.027a.639.639,0,0,1,.272-.53,1.221,1.221,0,0,1,.76-.209,3.088,3.088,0,0,1,1,.188,5.648,5.648,0,0,1,1.073.509l.668-1.2a5.053,5.053,0,0,0-1.3-.612,4.657,4.657,0,0,0-1.407-.223,3.362,3.362,0,0,0-1.025.153,2.5,2.5,0,0,0-.836.446,2.073,2.073,0,0,0-.76,1.645v.027a1.717,1.717,0,0,0,.209.885,1.99,1.99,0,0,0,.536.6,2.964,2.964,0,0,0,.739.4q.411.153.815.278l.62.188a3.126,3.126,0,0,1,.531.209,1.179,1.179,0,0,1,.362.272.537.537,0,0,1,.132.362v.027a.677.677,0,0,1-.3.578,1.419,1.419,0,0,1-.844.216,3.427,3.427,0,0,1-1.191-.229,4.964,4.964,0,0,1-1.22-.685l-.75,1.143a5.163,5.163,0,0,0,1.512.821,4.933,4.933,0,0,0,1.61.28,3.846,3.846,0,0,0,1.073-.146,2.61,2.61,0,0,0,.871-.432,2,2,0,0,0,.577-.716,2.308,2.308,0,0,0,.209-1.019ZM829.1,408.539a2.412,2.412,0,0,1,.62-1.4,1.708,1.708,0,0,1,1.289-.536,1.749,1.749,0,0,1,.745.153,1.774,1.774,0,0,1,.564.412,1.944,1.944,0,0,1,.376.613,2.886,2.886,0,0,1,.182.76Zm.013,1.115h5.408c.009-.083.017-.162.021-.236s.008-.15.008-.224a5.11,5.11,0,0,0-.224-1.519,3.731,3.731,0,0,0-.662-1.267,3.178,3.178,0,0,0-1.1-.865,3.486,3.486,0,0,0-1.54-.32,3.377,3.377,0,0,0-1.449.306,3.625,3.625,0,0,0-1.136.829,3.751,3.751,0,0,0-.748,1.222,4.172,4.172,0,0,0-.264,1.491,4.031,4.031,0,0,0,.293,1.568,3.556,3.556,0,0,0,2,1.987,3.931,3.931,0,0,0,1.484.278,3.781,3.781,0,0,0,1.749-.376,4.083,4.083,0,0,0,1.261-1l-.99-.878a3.54,3.54,0,0,1-.906.654,2.463,2.463,0,0,1-1.087.223,2.093,2.093,0,0,1-1.394-.481A2.219,2.219,0,0,1,829.111,409.654Zm-5.407.278a4.087,4.087,0,0,1,.182-1.275,2.469,2.469,0,0,1,.515-.913,2.13,2.13,0,0,1,.795-.543,2.75,2.75,0,0,1,1.017-.182h.1v-1.784a2.371,2.371,0,0,0-1.617.46,3.246,3.246,0,0,0-.99,1.338v-1.658h-1.7v7.358h1.7Zm-5.073-3.644a1.593,1.593,0,0,1-.567,1.28,2.326,2.326,0,0,1-1.545.483h-2v-3.526h2a2.459,2.459,0,0,1,1.538.441A1.566,1.566,0,0,1,818.631,406.288Zm1.742-.034a3.38,3.38,0,0,0-.258-1.352,2.927,2.927,0,0,0-.739-1.032,3.266,3.266,0,0,0-1.17-.662,4.851,4.851,0,0,0-1.54-.23H812.82v9.756h1.7V409.6h1.942a5.217,5.217,0,0,0,1.524-.216,3.774,3.774,0,0,0,1.241-.634,3.015,3.015,0,0,0,.839-1.045,3.227,3.227,0,0,0,.31-1.449Z" transform="translate(-772.496 -382.641)" fill="#0090d2"/>
  <path id="Path_511" data-name="Path 511" d="M880.481,669.435a1.862,1.862,0,0,1,.454-1.34,1.571,1.571,0,0,1,1.189-.48,1.446,1.446,0,0,1,1.155.467,1.954,1.954,0,0,1,.407,1.325v4.173h1.7V668.9a2.984,2.984,0,0,0-.681-2.063,2.463,2.463,0,0,0-1.932-.766,2.6,2.6,0,0,0-.771.1,2.564,2.564,0,0,0-.626.29,2.463,2.463,0,0,0-.5.414,3.958,3.958,0,0,0-.4.5v-1.154h-1.7v7.357h1.7Zm-6.161-4.148,1.7-1.6L874.488,663l-1.477,2.286Zm1.575,4.641a2.654,2.654,0,0,1-.155.913,2.2,2.2,0,0,1-2.957,1.254,2.237,2.237,0,0,1-.706-.509,2.266,2.266,0,0,1-.462-.76,2.573,2.573,0,0,1-.167-.927,2.679,2.679,0,0,1,.153-.913,2.174,2.174,0,0,1,3.662-.738,2.362,2.362,0,0,1,.463.76A2.529,2.529,0,0,1,875.9,669.928Zm1.7-.029a3.821,3.821,0,0,0-.292-1.491,3.765,3.765,0,0,0-2.057-2.042,4.027,4.027,0,0,0-1.568-.3,3.948,3.948,0,0,0-1.568.306,3.9,3.9,0,0,0-1.24.829,3.849,3.849,0,0,0-.822,1.227,3.8,3.8,0,0,0,2.049,5.016,4.185,4.185,0,0,0,3.13-.008,3.826,3.826,0,0,0,2.07-2.049A3.754,3.754,0,0,0,877.6,669.9Zm-9.1,3.68v-7.359h-1.7v7.359Zm.055-8.488v-1.6h-1.826v1.6Zm-2.857,7.275-1.018-1a4.045,4.045,0,0,1-.858.663,2.243,2.243,0,0,1-1.944.069,2.171,2.171,0,0,1-.7-.509,2.275,2.275,0,0,1-.453-.753,2.663,2.663,0,0,1-.16-.934,2.58,2.58,0,0,1,.16-.913,2.452,2.452,0,0,1,.439-.745,2.049,2.049,0,0,1,.669-.509,1.927,1.927,0,0,1,.85-.188,2.1,2.1,0,0,1,1.08.258,3.909,3.909,0,0,1,.83.663l1.045-1.129a4.1,4.1,0,0,0-1.205-.92,3.817,3.817,0,0,0-1.735-.35,3.776,3.776,0,0,0-2.742,1.144,3.879,3.879,0,0,0-1.09,2.718,3.776,3.776,0,0,0,3.821,3.817,3.646,3.646,0,0,0,1.77-.383,4.628,4.628,0,0,0,1.241-1Zm-9.533-1.449a1.362,1.362,0,0,1-.146.634,1.411,1.411,0,0,1-.411.488,1.97,1.97,0,0,1-.621.314,2.56,2.56,0,0,1-.773.111,1.758,1.758,0,0,1-1.01-.279.915.915,0,0,1-.411-.808v-.028a1,1,0,0,1,.446-.878,2.175,2.175,0,0,1,1.241-.307,4.924,4.924,0,0,1,.926.083,4.307,4.307,0,0,1,.76.209Zm1.63,2.663v-4.364a3.152,3.152,0,0,0-.794-2.292,3.259,3.259,0,0,0-2.439-.815,6.217,6.217,0,0,0-1.549.167,7.824,7.824,0,0,0-1.255.445l.46,1.349a7.281,7.281,0,0,1,.99-.334,4.5,4.5,0,0,1,1.114-.125,2,2,0,0,1,1.345.4,1.465,1.465,0,0,1,.467,1.17v.18a6.808,6.808,0,0,0-.9-.222,6.482,6.482,0,0,0-1.135-.084,4.62,4.62,0,0,0-1.192.146,2.769,2.769,0,0,0-.95.439,2.024,2.024,0,0,0-.62.738,2.3,2.3,0,0,0-.223,1.046v.028a2.135,2.135,0,0,0,.216.983,2.168,2.168,0,0,0,.571.711,2.46,2.46,0,0,0,.83.431,3.368,3.368,0,0,0,1,.146,3.039,3.039,0,0,0,1.421-.306,3.149,3.149,0,0,0,.962-.754v.907Zm-9.658-3.011-5.214-6.747h-1.587v9.756h1.7v-6.939l5.369,6.94h1.433v-9.756h-1.7Zm-13.755.35a1.363,1.363,0,0,1-.147.634,1.408,1.408,0,0,1-.41.488,1.987,1.987,0,0,1-.62.314,2.577,2.577,0,0,1-.774.111,1.753,1.753,0,0,1-1.01-.279.914.914,0,0,1-.412-.808v-.027a1,1,0,0,1,.446-.878,2.175,2.175,0,0,1,1.241-.307,4.924,4.924,0,0,1,.929.079,4.317,4.317,0,0,1,.759.209Zm1.63,2.663v-4.366a3.152,3.152,0,0,0-.794-2.292,3.26,3.26,0,0,0-2.439-.815,6.229,6.229,0,0,0-1.549.167,7.791,7.791,0,0,0-1.255.445l.46,1.349a7.322,7.322,0,0,1,.99-.334,4.505,4.505,0,0,1,1.115-.125,2,2,0,0,1,1.345.4,1.464,1.464,0,0,1,.467,1.17v.18a6.781,6.781,0,0,0-.9-.222,6.479,6.479,0,0,0-1.135-.084,4.633,4.633,0,0,0-1.191.146,2.762,2.762,0,0,0-.95.439,2.031,2.031,0,0,0-.62.738,2.315,2.315,0,0,0-.223,1.046v.028a2.138,2.138,0,0,0,.216.983,2.169,2.169,0,0,0,.571.711,2.474,2.474,0,0,0,.83.431,3.366,3.366,0,0,0,1,.146,3.039,3.039,0,0,0,1.421-.306,3.145,3.145,0,0,0,.962-.754v.907Zm-7.832,0V663.405h-1.7v10.174Zm-12.069-4.2a2.415,2.415,0,0,1,.62-1.4,1.706,1.706,0,0,1,1.289-.536,1.728,1.728,0,0,1,.746.153,1.8,1.8,0,0,1,.564.41,1.923,1.923,0,0,1,.376.614,2.846,2.846,0,0,1,.182.76Zm.017,1.11h5.408c.009-.083.016-.161.02-.236s.008-.15.008-.223a5.133,5.133,0,0,0-.223-1.519,3.744,3.744,0,0,0-.664-1.265,3.155,3.155,0,0,0-1.1-.865,3.488,3.488,0,0,0-1.54-.32,3.376,3.376,0,0,0-1.449.306,3.627,3.627,0,0,0-1.136.829,3.778,3.778,0,0,0-.746,1.22,4.173,4.173,0,0,0-.264,1.491,4.059,4.059,0,0,0,.292,1.568,3.557,3.557,0,0,0,2,1.986,3.933,3.933,0,0,0,1.484.279,3.777,3.777,0,0,0,1.749-.377,4.087,4.087,0,0,0,1.261-1l-.99-.879a3.5,3.5,0,0,1-.906.655,2.461,2.461,0,0,1-1.087.224,2.09,2.09,0,0,1-1.393-.481A2.22,2.22,0,0,1,816.122,670.5Zm-4.529-.6a2.583,2.583,0,0,1-.174.976,2.378,2.378,0,0,1-.465.745,1.972,1.972,0,0,1-.679.484,2.039,2.039,0,0,1-1.618,0,2.069,2.069,0,0,1-.674-.473,2.2,2.2,0,0,1-.457-.746,2.756,2.756,0,0,1-.167-.983,2.8,2.8,0,0,1,.167-1,2.206,2.206,0,0,1,.457-.746,2,2,0,0,1,.674-.467,2.083,2.083,0,0,1,.813-.159,2.03,2.03,0,0,1,1.486.65,2.393,2.393,0,0,1,.465.745,2.583,2.583,0,0,1,.172.974Zm1.673,3.68V663.405h-1.7v3.958a4.076,4.076,0,0,0-1-.906,2.681,2.681,0,0,0-1.5-.39,3.349,3.349,0,0,0-1.273.25,3.105,3.105,0,0,0-1.092.745,3.748,3.748,0,0,0-.758,1.2,4.363,4.363,0,0,0-.285,1.631,4.256,4.256,0,0,0,.293,1.631,3.787,3.787,0,0,0,.764,1.206,3.115,3.115,0,0,0,1.084.746,3.315,3.315,0,0,0,1.266.25,2.63,2.63,0,0,0,1.493-.4,3.792,3.792,0,0,0,1.008-.976v1.227Z" transform="translate(-765.694 -630.065)" fill="#0090d2"/>
  <path id="Path_512" data-name="Path 512" d="M891.287,210.588a1.6,1.6,0,0,1-.108.607,1.5,1.5,0,0,1-.289.464,1.241,1.241,0,0,1-.423.3,1.271,1.271,0,0,1-1.007,0,1.3,1.3,0,0,1-.419-.295,1.375,1.375,0,0,1-.284-.463,1.879,1.879,0,0,1,0-1.23,1.382,1.382,0,0,1,.284-.464,1.27,1.27,0,0,1,.419-.29,1.294,1.294,0,0,1,.506-.1,1.254,1.254,0,0,1,.5.1,1.234,1.234,0,0,1,.423.3,1.5,1.5,0,0,1,.289.463,1.607,1.607,0,0,1,.107.607m1.041,2.287V206.55h-1.054v2.461a2.53,2.53,0,0,0-.623-.564,1.679,1.679,0,0,0-.932-.242,2.084,2.084,0,0,0-.791.156,1.945,1.945,0,0,0-.679.464,2.324,2.324,0,0,0-.471.75,2.726,2.726,0,0,0-.177,1.014,2.636,2.636,0,0,0,.182,1.014,2.368,2.368,0,0,0,.474.75,1.943,1.943,0,0,0,.675.464,2.05,2.05,0,0,0,.787.156,1.642,1.642,0,0,0,.928-.25,2.362,2.362,0,0,0,.627-.61v.763Zm-6.742-2a1.161,1.161,0,0,1-.284.834.977.977,0,0,1-.738.3.9.9,0,0,1-.718-.29,1.208,1.208,0,0,1-.253-.825V208.3h-1.057v2.912a1.865,1.865,0,0,0,.423,1.282,1.523,1.523,0,0,0,1.2.477,1.447,1.447,0,0,0,.863-.241,2.243,2.243,0,0,0,.562-.572v.718h1.057V208.3h-1.057Zm-4.229,2V206.55H880.3v6.326Zm-3.249-1.654a.849.849,0,0,1-.09.393.892.892,0,0,1-.256.3,1.231,1.231,0,0,1-.386.195,1.57,1.57,0,0,1-.48.069,1.1,1.1,0,0,1-.628-.173.571.571,0,0,1-.256-.5v-.017a.623.623,0,0,1,.276-.546,1.352,1.352,0,0,1,.773-.19,3.139,3.139,0,0,1,.576.05,2.708,2.708,0,0,1,.472.13Zm1.015,1.654v-2.715a1.957,1.957,0,0,0-.494-1.425,2.031,2.031,0,0,0-1.517-.507,3.822,3.822,0,0,0-.961.1,4.762,4.762,0,0,0-.78.277l.285.84a4.544,4.544,0,0,1,.615-.207,2.778,2.778,0,0,1,.694-.078,1.246,1.246,0,0,1,.836.25.908.908,0,0,1,.29.729v.112a4.349,4.349,0,0,0-.559-.139,4.143,4.143,0,0,0-.705-.05,2.93,2.93,0,0,0-.742.091,1.74,1.74,0,0,0-.589.273,1.27,1.27,0,0,0-.386.459,1.444,1.444,0,0,0-.138.65v.017a1.306,1.306,0,0,0,.49,1.053,1.534,1.534,0,0,0,.515.269,2.113,2.113,0,0,0,.624.091,1.884,1.884,0,0,0,.884-.191,1.982,1.982,0,0,0,.6-.468v.563Zm-8.24-4.482a.642.642,0,0,1,.26-.515,1.121,1.121,0,0,1,.728-.213,2.212,2.212,0,0,1,.823.161,3.7,3.7,0,0,1,.823.463l.573-.805a3.569,3.569,0,0,0-1-.568,3.473,3.473,0,0,0-1.2-.194,2.62,2.62,0,0,0-.83.125,1.871,1.871,0,0,0-.65.359,1.692,1.692,0,0,0-.426.559,1.668,1.668,0,0,0-.155.724,1.716,1.716,0,0,0,.134.719,1.381,1.381,0,0,0,.391.5,2.226,2.226,0,0,0,.635.35,7.432,7.432,0,0,0,.865.25q.423.1.69.2a1.775,1.775,0,0,1,.417.2.591.591,0,0,1,.208.238.744.744,0,0,1,.056.295.656.656,0,0,1-.291.563,1.317,1.317,0,0,1-.785.208,2.455,2.455,0,0,1-1.022-.2,3.758,3.758,0,0,1-.893-.585l-.641.762a3.658,3.658,0,0,0,1.188.732,3.815,3.815,0,0,0,1.342.239,3,3,0,0,0,.876-.122,1.933,1.933,0,0,0,.68-.355,1.639,1.639,0,0,0,.443-.571,1.8,1.8,0,0,0,.159-.772,1.622,1.622,0,0,0-.125-.663,1.42,1.42,0,0,0-.37-.494,2.1,2.1,0,0,0-.612-.359,6.6,6.6,0,0,0-.846-.269q-.435-.1-.718-.2a1.811,1.811,0,0,1-.443-.208.64.64,0,0,1-.22-.243A.722.722,0,0,1,870.882,208.4Zm-7.8,1.871a1.506,1.506,0,0,1,.386-.871,1.058,1.058,0,0,1,.8-.334,1.077,1.077,0,0,1,.463.1,1.1,1.1,0,0,1,.35.256,1.224,1.224,0,0,1,.235.38,1.834,1.834,0,0,1,.113.472Zm.009.693h3.362c.006-.05.011-.1.014-.147s0-.092,0-.137a3.19,3.19,0,0,0-.138-.945,2.349,2.349,0,0,0-.412-.789,1.971,1.971,0,0,0-.689-.537,2.167,2.167,0,0,0-.958-.2,2.1,2.1,0,0,0-.9.191,2.229,2.229,0,0,0-.706.515,2.338,2.338,0,0,0-.463.758,2.574,2.574,0,0,0-.166.928,2.516,2.516,0,0,0,.182.975,2.271,2.271,0,0,0,.5.75,2.242,2.242,0,0,0,.746.485,2.426,2.426,0,0,0,.922.174,2.351,2.351,0,0,0,1.088-.234,2.511,2.511,0,0,0,.784-.625l-.615-.546a2.216,2.216,0,0,1-.564.408,1.539,1.539,0,0,1-.676.137,1.3,1.3,0,0,1-.866-.3,1.37,1.37,0,0,1-.452-.862Zm-3.015-.372a1.612,1.612,0,0,1-.108.607,1.47,1.47,0,0,1-.289.464,1.231,1.231,0,0,1-.423.3,1.27,1.27,0,0,1-1.007,0,1.29,1.29,0,0,1-.418-.295,1.35,1.35,0,0,1-.284-.463,1.872,1.872,0,0,1,0-1.23,1.357,1.357,0,0,1,.284-.464,1.26,1.26,0,0,1,.418-.29,1.3,1.3,0,0,1,.505-.1,1.255,1.255,0,0,1,.5.1,1.222,1.222,0,0,1,.423.3,1.473,1.473,0,0,1,.289.463,1.609,1.609,0,0,1,.107.6Zm1.039,2.287V206.55h-1.057v2.461a2.547,2.547,0,0,0-.625-.564,1.676,1.676,0,0,0-.933-.242,2.076,2.076,0,0,0-.791.156,1.928,1.928,0,0,0-.679.464,2.314,2.314,0,0,0-.471.75,2.714,2.714,0,0,0-.178,1.014,2.647,2.647,0,0,0,.182,1.014,2.363,2.363,0,0,0,.475.75,1.944,1.944,0,0,0,.674.464,2.054,2.054,0,0,0,.787.156,1.646,1.646,0,0,0,.928-.25,2.349,2.349,0,0,0,.628-.607v.763Zm-8.959-2.27a1.656,1.656,0,0,1-.1.564,1.333,1.333,0,0,1-.709.781,1.35,1.35,0,0,1-.573.117,1.306,1.306,0,0,1-.555-.117,1.383,1.383,0,0,1-.439-.316,1.415,1.415,0,0,1-.287-.473,1.6,1.6,0,0,1-.1-.576,1.666,1.666,0,0,1,.1-.567,1.332,1.332,0,0,1,.709-.781,1.422,1.422,0,0,1,1.13,0,1.372,1.372,0,0,1,.439.321,1.472,1.472,0,0,1,.287.472,1.57,1.57,0,0,1,.1.575Zm1.057-.018a2.387,2.387,0,0,0-.181-.928,2.339,2.339,0,0,0-1.278-1.269,2.5,2.5,0,0,0-.976-.186,2.448,2.448,0,0,0-.975.191,2.376,2.376,0,0,0-.009,4.4,2.6,2.6,0,0,0,1.946,0,2.376,2.376,0,0,0,1.286-1.273,2.32,2.32,0,0,0,.183-.928Zm-5.857,2.287V208.3H846.3v4.575Zm.034-5.277v-1h-1.135v1Zm-3.549,3.536a2.534,2.534,0,0,1,.112-.793,1.525,1.525,0,0,1,.321-.567,1.315,1.315,0,0,1,.493-.338,1.724,1.724,0,0,1,.632-.112h.061v-1.11a1.477,1.477,0,0,0-1.005.286,2.011,2.011,0,0,0-.615.832V208.3h-1.058v4.575h1.058Zm-5.373-.867a1.515,1.515,0,0,1,.386-.871,1.06,1.06,0,0,1,.8-.334,1.073,1.073,0,0,1,.815.35,1.218,1.218,0,0,1,.234.38,1.771,1.771,0,0,1,.112.472Zm.01.693h3.364c.005-.05.009-.1.013-.147s0-.092,0-.137a3.193,3.193,0,0,0-.139-.945,2.33,2.33,0,0,0-.411-.789,1.962,1.962,0,0,0-.685-.537,2.162,2.162,0,0,0-.958-.2,2.089,2.089,0,0,0-.9.191,2.22,2.22,0,0,0-.707.515,2.332,2.332,0,0,0-.466.76,2.6,2.6,0,0,0-.165.928,2.527,2.527,0,0,0,.182.975,2.256,2.256,0,0,0,.5.75,2.221,2.221,0,0,0,.744.485,2.435,2.435,0,0,0,.923.174,2.35,2.35,0,0,0,1.087-.234,2.517,2.517,0,0,0,.784-.625l-.615-.546a2.209,2.209,0,0,1-.563.408,1.545,1.545,0,0,1-.676.137,1.3,1.3,0,0,1-.866-.3,1.391,1.391,0,0,1-.45-.863Zm-2.949-1.768h1.23V208.3h-1.23v-1.256h-1.056V208.3H833.9v.893h.581v2.415a1.826,1.826,0,0,0,.1.638,1.01,1.01,0,0,0,.275.412,1.076,1.076,0,0,0,.424.225,1.9,1.9,0,0,0,.53.069,2.037,2.037,0,0,0,.52-.06,1.892,1.892,0,0,0,.422-.174v-.858a1.444,1.444,0,0,1-.65.156.6.6,0,0,1-.417-.134.566.566,0,0,1-.147-.439Zm-2.208,2.332v-.019a1.011,1.011,0,0,0-.13-.528,1.287,1.287,0,0,0-.334-.368,2.148,2.148,0,0,0-.455-.256c-.168-.068-.336-.129-.5-.181-.133-.041-.261-.082-.386-.125a2.646,2.646,0,0,1-.329-.139.823.823,0,0,1-.229-.164.3.3,0,0,1-.087-.212v-.018a.4.4,0,0,1,.169-.329.763.763,0,0,1,.473-.13,1.949,1.949,0,0,1,.628.117,3.505,3.505,0,0,1,.668.316l.415-.745a3.115,3.115,0,0,0-.806-.381,2.913,2.913,0,0,0-.876-.139,2.088,2.088,0,0,0-.637.1,1.55,1.55,0,0,0-.52.277,1.291,1.291,0,0,0-.472,1.023v.017a1.065,1.065,0,0,0,.13.55,1.234,1.234,0,0,0,.332.371,1.826,1.826,0,0,0,.46.247c.171.064.339.122.507.173l.385.118a1.941,1.941,0,0,1,.329.129.732.732,0,0,1,.225.169.331.331,0,0,1,.083.225v.017a.42.42,0,0,1-.186.359.887.887,0,0,1-.524.135,2.132,2.132,0,0,1-.741-.143,3.04,3.04,0,0,1-.759-.42l-.468.711a3.2,3.2,0,0,0,.94.511,3.074,3.074,0,0,0,1,.174,2.365,2.365,0,0,0,.668-.091,1.605,1.605,0,0,0,.542-.269,1.24,1.24,0,0,0,.359-.446,1.441,1.441,0,0,0,.132-.631Zm-4.5,1.349V208.3h-1.057v4.575Zm.034-5.277v-1h-1.135v1Zm-5.338,2.7a1.157,1.157,0,0,1,.283-.834.982.982,0,0,1,.74-.3.911.911,0,0,1,.718.29,1.218,1.218,0,0,1,.25.825v2.594h1.058v-2.907a1.867,1.867,0,0,0-.424-1.282,1.518,1.518,0,0,0-1.2-.476,1.562,1.562,0,0,0-1.18.5,2.784,2.784,0,0,0-.247.31V208.3h-1.058v4.575h1.058Zm-2.287,2.576V208.3h-1.053v4.575Zm.035-5.277V206.6h-1.132v1Zm-3.513.931v4.348h1.057V206.81h-1.136l-1.846,2.868-1.845-2.868H812.85v6.065h1.057v-4.332l1.9,2.842h.035Z" transform="translate(-772.524 -196.427)" fill="#0090d2"/>
  <path id="Path_513" data-name="Path 513" d="M170.652,28.918l-2.722.4,2.722.4a.077.077,0,0,1,.066.061.08.08,0,0,1-.035.083,3.1,3.1,0,0,1-.9.353,10.813,10.813,0,0,0-1.168.33,4.1,4.1,0,0,0-.512.219,3.057,3.057,0,0,1,1.144-.043c.029,0,.361.032.464.036q.192.006.384-.007l.04-.027a5.4,5.4,0,0,1,1.655-.739.214.214,0,0,1,.191.041.217.217,0,0,1,.077.179.256.256,0,0,1-.008.06,3.564,3.564,0,0,1,.464-.242,5.48,5.48,0,0,1,1.739-.4.214.214,0,0,1,.172.067.209.209,0,0,1,.054.177.07.07,0,0,1,0,.025,3.413,3.413,0,0,1,.672-.2,5.538,5.538,0,0,1,1.787-.025.218.218,0,0,1,.162.116.213.213,0,0,1,.02.111,3.692,3.692,0,0,1,.623-.05,5.533,5.533,0,0,1,1.755.336.207.207,0,0,1,.141.208,3.241,3.241,0,0,1,1.329.282l.068.011a10.6,10.6,0,0,0,1.205.145,3.886,3.886,0,0,0,.556-.005,3.062,3.062,0,0,1-1.072-.4c-.127-.068-.26-.14-.415-.211a4.463,4.463,0,0,0-1.05-.321.081.081,0,0,1-.067-.079.076.076,0,0,1,.067-.077l2.718-.407-2.716-.39a.08.08,0,0,1-.067-.061.079.079,0,0,1,.035-.083,3.114,3.114,0,0,1,.9-.35,11.1,11.1,0,0,0,1.168-.327,3.986,3.986,0,0,0,.512-.219,3.072,3.072,0,0,1-1.144.042c-.144-.016-.294-.031-.464-.037a4.551,4.551,0,0,0-1.091.1.079.079,0,0,1-.06-.144l2.356-1.414-2.66.676a.079.079,0,0,1-.084-.121,3.074,3.074,0,0,1,.7-.669,10.956,10.956,0,0,0,.954-.75,3.968,3.968,0,0,0,.389-.4,3.046,3.046,0,0,1-1.041.477c-.14.041-.283.083-.443.144a4.537,4.537,0,0,0-.968.513.078.078,0,0,1-.11-.109l1.638-2.205-2.2,1.643a.076.076,0,0,1-.089,0,.08.08,0,0,1-.034-.083,3.129,3.129,0,0,1,.385-.883,10.99,10.99,0,0,0,.588-1.058,4.036,4.036,0,0,0,.207-.517,3.077,3.077,0,0,1-.78.841c-.112.091-.229.186-.354.3a4.55,4.55,0,0,0-.7.85.078.078,0,0,1-.143-.06l.67-2.664-1.4,2.36a.078.078,0,0,1-.145-.026,3.077,3.077,0,0,1,.017-.963,11.219,11.219,0,0,0,.141-1.205,4.026,4.026,0,0,0-.007-.557,3.038,3.038,0,0,1-.4,1.074c-.068.128-.141.261-.21.415a4.533,4.533,0,0,0-.319,1.05.079.079,0,0,1-.079.067.08.08,0,0,1-.079-.067l-.4-2.709-.381,2.709a.08.08,0,0,1-.062.066.078.078,0,0,1-.082-.035,3.076,3.076,0,0,1-.35-.9,10.828,10.828,0,0,0-.327-1.168,3.92,3.92,0,0,0-.22-.512,3.049,3.049,0,0,1,.04,1.144c-.015.144-.03.294-.037.464a4.483,4.483,0,0,0,.105,1.09.079.079,0,0,1-.144.06l-1.419-2.356.684,2.66a.078.078,0,0,1-.122.086,3.081,3.081,0,0,1-.667-.694,11.188,11.188,0,0,0-.75-.955,3.823,3.823,0,0,0-.4-.39,3.045,3.045,0,0,1,.476,1.042c.041.14.083.283.144.442a4.522,4.522,0,0,0,.514.969.079.079,0,0,1-.11.11L170.133,24l1.649,2.2a.081.081,0,0,1,0,.09.082.082,0,0,1-.084.034,3.136,3.136,0,0,1-.883-.386,10.854,10.854,0,0,0-1.059-.593,3.989,3.989,0,0,0-.517-.207,3.058,3.058,0,0,1,.839.78c.091.113.186.229.3.354a4.476,4.476,0,0,0,.85.7.079.079,0,0,1-.06.144l-2.67-.67,2.366,1.4a.079.079,0,0,1-.028.145,3.135,3.135,0,0,1-.964-.018,11.186,11.186,0,0,0-1.205-.142,3.819,3.819,0,0,0-.557.006,3.033,3.033,0,0,1,1.076.4c.126.07.259.142.413.211a4.435,4.435,0,0,0,1.05.319.08.08,0,0,1,.067.079.077.077,0,0,1-.067.077" transform="translate(-159.836 -20.91)" fill="#fcc200"/>
  <path id="Path_514" data-name="Path 514" d="M331.713,119.8c2.274-.362,2.526.294,2.526.294a.2.2,0,0,0,.244.1s.155-.016.077-.2c0,0-.25-.744-1.46-.873a4.816,4.816,0,0,0-1.307.037c-.2.035-.257.481-.257.481-.03.2.177.158.177.158" transform="translate(-315.262 -113.347)" fill="#1d1d1b"/>
  <path id="Path_515" data-name="Path 515" d="M253.819,140.059a2.818,2.818,0,0,0-.911-.1,1.371,1.371,0,0,0-1.3.672c-.09.214.09.232.09.232a.232.232,0,0,0,.285-.119s.058-.182.481-.286a.527.527,0,1,0,1.016.195.514.514,0,0,0-.043-.207.672.672,0,0,1,.378.34c.037.074.116.107.311.107.211,0,.159-.137.159-.137a1.01,1.01,0,0,0-.468-.7" transform="translate(-239.308 -133.163)" fill="#1d1d1b"/>
  <path id="Path_516" data-name="Path 516" d="M331.05,140.9c.2,0,.275-.033.312-.107a.673.673,0,0,1,.376-.341.544.544,0,0,0-.043.207.527.527,0,1,0,1.053,0,.535.535,0,0,0-.037-.194c.423.1.481.286.481.286a.232.232,0,0,0,.285.12s.181-.02.09-.233a1.374,1.374,0,0,0-1.3-.672,2.8,2.8,0,0,0-.913.1,1,1,0,0,0-.467.7s-.05.137.158.137" transform="translate(-314.647 -133.169)" fill="#1d1d1b"/>
  <path id="Path_517" data-name="Path 517" d="M244.212,120.143a.2.2,0,0,0,.244-.106s.25-.656,2.525-.293c0,0,.206.041.178-.158,0,0-.057-.446-.258-.481a4.816,4.816,0,0,0-1.307-.037c-1.209.129-1.46.874-1.46.874-.078.182.077.2.077.2" transform="translate(-232.211 -113.29)" fill="#1d1d1b"/>
  <path id="Path_518" data-name="Path 518" d="M75.352,238.524H72.584a1.352,1.352,0,0,1-1.108-.461,1.409,1.409,0,0,1-.289-.682.527.527,0,0,1-.009-.061,2.619,2.619,0,0,1,.042-.837,8.667,8.667,0,0,1,1.683-3.777,1.017,1.017,0,0,1-.675-1.233A3.014,3.014,0,0,1,73,230.158a3.626,3.626,0,0,1,2.546-1.178,3.258,3.258,0,0,1,3.081,1.861,17.158,17.158,0,0,1,1.714,5.82l.011.073a1.713,1.713,0,0,1-.026.685.534.534,0,0,1-.018.061,1.3,1.3,0,0,1-.281.489,1.842,1.842,0,0,1-1.089.52,3.1,3.1,0,0,1-.489.039,1.013,1.013,0,0,1-.112,0H76.182v3.914H88.537a21.57,21.57,0,0,0-1.011-6.6,17.9,17.9,0,0,0-2.752-5.38,13.168,13.168,0,0,0-4.061-3.609,9.951,9.951,0,0,0-9.889,0,13.24,13.24,0,0,0-4.061,3.609,17.859,17.859,0,0,0-2.749,5.38,21.571,21.571,0,0,0-1.017,6.6H75.352Z" transform="translate(-60.149 -214.458)" fill="#0090d2"/>
  <path id="Path_519" data-name="Path 519" d="M63,563.82a21.927,21.927,0,0,0,.586,5.071c5.525-.63,8.822-1.279,9.8-1.934a3.12,3.12,0,0,1,1.967-.745V563.82Z" transform="translate(-60.15 -535.841)" fill="#fff"/>
  <path id="Path_520" data-name="Path 520" d="M326.79,566.307a4.477,4.477,0,0,1,1.26.426l.122-.006a5.468,5.468,0,0,1,2.144.486c.228.083.486.176.768.271a36.233,36.233,0,0,0,7.456,1.478,21.869,21.869,0,0,0,.6-5.142H326.79Z" transform="translate(-310.757 -535.841)" fill="#fff"/>
  <path id="Path_521" data-name="Path 521" d="M241.7,457.217a.579.579,0,0,1-.08-.135c1.171-.533,1.73-.676,3.34.345h-2.681a.7.7,0,0,1-.578-.21" transform="translate(-229.843 -434.045)" fill="#e53312"/>
  <path id="Path_522" data-name="Path 522" d="M246.9,316.4h-.864a3.649,3.649,0,0,1-1.784-.522c-1.86-1.2-2.7-1.055-3.856-.546.007-.05.015-.1.025-.155a8.2,8.2,0,0,1,1.4-3.294,5.363,5.363,0,0,1,.827-.9c.05-.037.1-.074.146-.116a.342.342,0,0,0-.417-.541c-.013.009-.069.05-.159.123-.288.2-.516.207-.641.137a.4.4,0,0,1-.146-.438,2.4,2.4,0,0,1,.6-.961l.018-.017a2.97,2.97,0,0,1,2.049-.947h.031a2.477,2.477,0,0,1,.884.13,2.624,2.624,0,0,1,1.538,1.362,14.528,14.528,0,0,1,1.149,2.99,4.654,4.654,0,0,1-1.31-.724.343.343,0,1,0-.44.527,5.128,5.128,0,0,0,1.928.955c.09.428.16.835.221,1.22a4.868,4.868,0,0,0-1.089-.384,5.45,5.45,0,0,1-.587-.179,6.047,6.047,0,0,1-1.321-.762.342.342,0,0,0-.425.536,6.689,6.689,0,0,0,1.49.863,6,6,0,0,0,.668.2c.906.24,1.325.431,1.342.9a.607.607,0,0,1-.122.2,1.655,1.655,0,0,1-1.155.338" transform="translate(-228.684 -293.015)" fill="#e53312"/>
  <path id="Path_523" data-name="Path 523" d="M267.311,725.842c-.261-.226-.536-.1-1.056.262-.22.155-.587.458-.557.75a.271.271,0,0,0,.115.212,1.1,1.1,0,0,0,.694.061,1.912,1.912,0,0,1,.684-.776.577.577,0,0,0,.232-.324.251.251,0,0,0-.111-.184" transform="translate(-252.716 -689.658)" fill="#f9c081"/>
  <path id="Path_524" data-name="Path 524" d="M292.7,742.541a.4.4,0,0,0,.233.138,1.386,1.386,0,0,0,.895-.313h0l.021-.013c.092-.059.286-.226.3-.372,0-.025.011-.1-.11-.216-.017-.013-.193-.141-.578.082a1.724,1.724,0,0,0-.765.7" transform="translate(-278.37 -704.849)" fill="#f9c081"/>
  <path id="Path_525" data-name="Path 525" d="M221.784,709.636a1.224,1.224,0,0,0-.957.434c-.136.179-.088.288-.073.324.032.075.178.141.379.173a1.582,1.582,0,0,0,.168.019,1.582,1.582,0,0,1,.486-.73c.056-.055.123-.117.2-.18a.843.843,0,0,0-.18-.037l-.024,0" transform="translate(-210.001 -674.365)" fill="#f9c081"/>
  <path id="Path_526" data-name="Path 526" d="M244.637,714.293c-.272-.137-.586-.02-.989.367-.253.242-.344.4-.333.579.007.073.031.25.368.361a1.465,1.465,0,0,0,.189.047,1.8,1.8,0,0,1,.777-.946c.061-.042.124-.087.193-.132a.182.182,0,0,0,0-.093.393.393,0,0,0-.2-.183" transform="translate(-231.452 -678.742)" fill="#f9c081"/>
  <path id="Path_527" data-name="Path 527" d="M94.606,628.007a7.613,7.613,0,0,0-1.708-1.574,6.547,6.547,0,0,0-1.16-.633,1.849,1.849,0,0,0-1.173-.119l-.017,0a1.617,1.617,0,0,0-.42.23c-.107.07-.227.15-.365.23a3.216,3.216,0,0,1-1.324.4,1.166,1.166,0,0,1-1.131-.35.77.77,0,0,1-.125-.769.007.007,0,0,0,0,0c.093-.246.392-.393.771-.578.163-.081.332-.163.458-.244a4.637,4.637,0,0,0,.437-.327c.14-.114.3-.244.558-.425a1.719,1.719,0,0,1,.45-.23c-.157-.026-.332-.047-.532-.064a2.463,2.463,0,0,0-1.731.633l0,0a10.379,10.379,0,0,1-3.341,1.053c-1.63.325-3.865.65-6.647.969.087.321.18.639.282.955a18.9,18.9,0,0,0,1.323,3.146c.977-.431,3.42-1.53,5.319-2.546a1.8,1.8,0,0,1,1.349-.5,1.328,1.328,0,0,1,.719.282,1.114,1.114,0,0,1,.875.055.929.929,0,0,1,.5.516l.03-.01a1,1,0,0,1,1,.206.828.828,0,0,1,.313.559.88.88,0,0,1,.8.2.844.844,0,0,1,.283.7.909.909,0,0,1-.171.428,1.128,1.128,0,0,0,.6-.06,1.176,1.176,0,0,0,.2-.106,3.09,3.09,0,0,0-.473-.7.3.3,0,0,1,.443-.393,3.6,3.6,0,0,1,.607.915.55.55,0,0,0,.485-.146.833.833,0,0,0,.163-.231,2.2,2.2,0,0,0-.355-.508,5.4,5.4,0,0,0-.757-.637.3.3,0,1,1,.34-.484,5.975,5.975,0,0,1,.863.734,2.764,2.764,0,0,1,.444.646.665.665,0,0,0,.7-.4,5.294,5.294,0,0,0-1.68-1.511.3.3,0,0,1,.26-.532,5.845,5.845,0,0,1,1.9,1.693.676.676,0,0,0,.478-.155.578.578,0,0,0,.16-.335" transform="translate(-74.021 -592.584)" fill="#f9c081"/>
  <path id="Path_528" data-name="Path 528" d="M289.139,635.218c-1.488-.354-2.558-.694-2.569-.7h-.005c-.289-.1-.55-.193-.782-.277a5,5,0,0,0-1.915-.45c-.07,0-.137.006-.2.008h0l-.265.007a2.075,2.075,0,0,0-1.249.255c-.242.169-.392.293-.526.4a5.109,5.109,0,0,1-.488.363,5.014,5.014,0,0,1-.521.28,2.63,2.63,0,0,0-.482.272c-.017.05-.019.093.059.2s.291.122.614.1a2.639,2.639,0,0,0,1.061-.32c.121-.07.23-.142.334-.211a1.918,1.918,0,0,1,.615-.313,3.739,3.739,0,0,1,2.805.829,8.155,8.155,0,0,1,1.735,1.561c0,.006.02.026.047.058l.014.016a3.391,3.391,0,0,0,.579.517,22.916,22.916,0,0,0,4.418,2.327,18.967,18.967,0,0,0,1.383-3.25q.139-.435.259-.878a31.059,31.059,0,0,1-4.919-.8" transform="translate(-266.423 -602.314)" fill="#f9c081"/>
  <path id="Path_529" data-name="Path 529" d="M131.12,721.56a1.082,1.082,0,0,1-.227.319,1.226,1.226,0,0,1-.83.323,1.3,1.3,0,0,1-.207.324,1.278,1.278,0,0,1-1.081.422,1.406,1.406,0,0,1-.219.292,1.143,1.143,0,0,1-1.05.319,1.668,1.668,0,0,1-.426.25,1.762,1.762,0,0,1-.992.08v3.275a.415.415,0,1,1-.83,0v-3.138a1.575,1.575,0,0,1-.535.1,1.075,1.075,0,0,1-.218-.022,1,1,0,0,1-.585-.357,1.6,1.6,0,0,1-1.105-.16.818.818,0,0,1-.308-.387,2.064,2.064,0,0,1-.391-.081,1.1,1.1,0,0,1-.726-.609,2.584,2.584,0,0,1-.285-.027,1.034,1.034,0,0,1-.839-.523.862.862,0,0,1-.064-.229c-1.76.905-3.769,1.811-4.672,2.21a16.7,16.7,0,0,0,1.139,1.715,13.2,13.2,0,0,0,4.06,3.609,10.655,10.655,0,0,0,2.185.919.957.957,0,0,1,.324-.352,3.546,3.546,0,0,1,2.436-.016,3.55,3.55,0,0,1,2.438.016.956.956,0,0,1,.323.352,10.564,10.564,0,0,0,2.185-.919,13.224,13.224,0,0,0,4.06-3.609,16.675,16.675,0,0,0,1.078-1.609,22.507,22.507,0,0,1-4.636-2.491" transform="translate(-110.055 -685.698)" fill="#fff"/>
  <path id="Path_530" data-name="Path 530" d="M36.968,35.036a.272.272,0,0,0-.185-.063c.053-.111.1-.227.146-.346a5.392,5.392,0,0,0,.3-1.8.263.263,0,0,0-.116-.222.268.268,0,0,0-.183-.044c.04-.11.075-.224.1-.34a5.362,5.362,0,0,0,.121-1.817.264.264,0,0,0-.138-.21.259.259,0,0,0-.188-.024c.034-.13.062-.264.084-.4a5.4,5.4,0,0,0-.057-1.822.268.268,0,0,0-.158-.2.279.279,0,0,0-.141-.017c.016-.093.03-.187.041-.281a5.355,5.355,0,0,0-.143-1.817.263.263,0,0,0-.168-.187.259.259,0,0,0-.25.036h0a3.784,3.784,0,0,0,.011-.44,5.412,5.412,0,0,0-.392-1.781.265.265,0,0,0-.4-.122,4.011,4.011,0,0,0-.033-.407A5.386,5.386,0,0,0,34.653,21a.265.265,0,0,0-.406-.082c-.019-.124-.045-.25-.077-.375a5.416,5.416,0,0,0-.774-1.654.269.269,0,0,0-.222-.118.264.264,0,0,0-.216.115,3.975,3.975,0,0,0-.163-.435,5.508,5.508,0,0,0-1.032-1.51.265.265,0,0,0-.409.027,4.037,4.037,0,0,0-.239-.427,5.377,5.377,0,0,0-1.234-1.315.268.268,0,0,0-.25-.041.265.265,0,0,0-.15.135A3.054,3.054,0,0,0,28.03,14.3c.108.01.218.019.333.025a3.911,3.911,0,0,0,1.272-.117.335.335,0,0,0-.082-.655,2.817,2.817,0,0,1-1.484-.411c-.072-.039-.147-.08-.227-.12l1.879-.282a.335.335,0,0,0,0-.664l-1.865-.267c.216-.058.468-.132.726-.221a3.948,3.948,0,0,0,1.131-.6.335.335,0,0,0-.327-.574,2.838,2.838,0,0,1-1.528.189c-.08-.008-.164-.017-.252-.024L29.231,9.6a.335.335,0,0,0-.255-.612l-1.834.466c.177-.135.383-.3.59-.486a3.86,3.86,0,0,0,.815-.984.335.335,0,0,0-.522-.4,2.838,2.838,0,0,1-1.338.762c-.078.023-.157.045-.24.072L27.575,6.9a.335.335,0,0,0-.47-.469L25.586,7.565c.113-.2.24-.43.361-.68a3.944,3.944,0,0,0,.377-1.222.336.336,0,0,0-.638-.174,2.825,2.825,0,0,1-.944,1.216c-.062.05-.125.1-.19.157l.461-1.832a.335.335,0,0,0-.613-.253l-.975,1.634c.03-.225.058-.493.074-.772a3.948,3.948,0,0,0-.12-1.272.336.336,0,0,0-.653.082,2.849,2.849,0,0,1-.406,1.485c-.037.069-.076.139-.115.214L21.93,4.287A.337.337,0,0,0,21.6,4h0a.337.337,0,0,0-.332.289L21,6.144c-.058-.214-.13-.462-.218-.717a3.905,3.905,0,0,0-.6-1.131.335.335,0,0,0-.573.326A2.824,2.824,0,0,1,19.8,6.151c-.008.083-.017.168-.025.258L18.8,4.778a.335.335,0,0,0-.612.257l.469,1.821c-.135-.176-.3-.379-.479-.582a3.9,3.9,0,0,0-.983-.816.335.335,0,0,0-.405.521,2.832,2.832,0,0,1,.76,1.339c.024.08.046.16.074.245L16.091,6.431a.336.336,0,0,0-.469.471l1.133,1.512c-.193-.112-.425-.239-.671-.358a3.968,3.968,0,0,0-1.22-.377.336.336,0,0,0-.175.638,2.842,2.842,0,0,1,1.215.944c.05.063.1.128.16.195l-1.841-.461a.335.335,0,0,0-.25.613l1.629.969c-.222-.029-.487-.058-.762-.074a3.966,3.966,0,0,0-1.273.121.335.335,0,0,0,.084.655,2.846,2.846,0,0,1,1.484.407c.07.039.142.077.218.116l-1.874.275a.335.335,0,0,0,0,.664l1.886.275c-.218.059-.475.135-.74.226a3.869,3.869,0,0,0-1.129.6.335.335,0,0,0,.332.572,3.219,3.219,0,0,1,.994-.222,7.542,7.542,0,0,0-.838.817c-.075.095-.145.193-.211.293a.27.27,0,0,0-.14-.112.264.264,0,0,0-.25.041,5.446,5.446,0,0,0-1.26,1.329,4.112,4.112,0,0,0-.238.421.262.262,0,0,0-.175-.116.267.267,0,0,0-.239.08,5.48,5.48,0,0,0-1.032,1.51,3.948,3.948,0,0,0-.154.413.266.266,0,0,0-.4.034,5.328,5.328,0,0,0-.842,1.619,4.07,4.07,0,0,0-.1.425.265.265,0,0,0-.224-.088A.262.262,0,0,0,8.51,21a5.35,5.35,0,0,0-.59,1.725,4,4,0,0,0-.038.413.264.264,0,0,0-.415.112A5.349,5.349,0,0,0,7.1,25.034a3.884,3.884,0,0,0,.014.4.262.262,0,0,0-.224-.02.259.259,0,0,0-.167.187,5.382,5.382,0,0,0-.143,1.817c.011.1.027.208.046.311a.262.262,0,0,0-.275.215,5.4,5.4,0,0,0-.057,1.822,3.736,3.736,0,0,0,.087.414.269.269,0,0,0-.106.027.263.263,0,0,0-.143.2,5.313,5.313,0,0,0,.056,1.821c.025.118.058.236.094.35a.258.258,0,0,0-.175.038.265.265,0,0,0-.125.22,5.413,5.413,0,0,0,.25,1.806,4.21,4.21,0,0,0,.18.447l-.032-.009a.266.266,0,0,0-.329.3,5.408,5.408,0,0,0,.561,1.735c.052.094.107.187.164.276a.269.269,0,0,0-.123.073.263.263,0,0,0-.065.243,5.4,5.4,0,0,0,.691,1.69c.072.111.15.218.23.32a.272.272,0,0,0-.177.1.267.267,0,0,0-.037.25,5.44,5.44,0,0,0,.883,1.6c.078.094.16.186.245.272a.265.265,0,0,0-.162.373,5.381,5.381,0,0,0,1.064,1.488q.129.122.266.233a.26.26,0,0,0-.136.133.264.264,0,0,0,.019.253A5.44,5.44,0,0,0,10.687,45.8a4.006,4.006,0,0,0,.415.283.559.559,0,0,0-.055.018.263.263,0,0,0-.17.189.269.269,0,0,0,.066.244,6.345,6.345,0,0,0,1.415,1.132,3.806,3.806,0,0,0,1.165.44,2.549,2.549,0,0,0,.94.012.349.349,0,0,0,.05-.013,13.944,13.944,0,0,0,2.6,1.449,12.851,12.851,0,0,0,2.3.726c.161.033.316.063.464.088A2.035,2.035,0,0,1,19,49.79a1.184,1.184,0,0,1-.106-.15,12.343,12.343,0,0,1-1.584-.546,13.491,13.491,0,0,1-2.487-1.383.207.207,0,0,0,.006-.029,2.6,2.6,0,0,0-.088-.805,11.645,11.645,0,0,0,1.636,1.146A11.068,11.068,0,0,0,18.717,49a1.185,1.185,0,0,1,.008-.139,1.069,1.069,0,0,1,.113-.372,10.54,10.54,0,0,1-2.185-.918,13.228,13.228,0,0,1-4.06-3.61,16.48,16.48,0,0,1-1.138-1.715c.9-.4,2.913-1.3,4.672-2.21a.862.862,0,0,0,.064.229,1.032,1.032,0,0,0,.839.523,2.578,2.578,0,0,0,.285.027,1.1,1.1,0,0,0,.726.609,2.072,2.072,0,0,0,.391.081.822.822,0,0,0,.308.387,1.6,1.6,0,0,0,1.1.16,1,1,0,0,0,.586.357,1.081,1.081,0,0,0,.218.021,1.568,1.568,0,0,0,.534-.1v3.14a.415.415,0,1,0,.83,0V42.191a1.749,1.749,0,0,0,.991-.08,1.631,1.631,0,0,0,.427-.247,1.141,1.141,0,0,0,1.05-.319,1.438,1.438,0,0,0,.218-.292,1.263,1.263,0,0,0,1.288-.747,1.222,1.222,0,0,0,.83-.323,1.055,1.055,0,0,0,.227-.319,22.566,22.566,0,0,0,4.635,2.491A16.35,16.35,0,0,1,30.6,43.961a13.176,13.176,0,0,1-4.06,3.61,10.558,10.558,0,0,1-2.185.919,1.027,1.027,0,0,1,.113.371A1.217,1.217,0,0,1,24.48,49a11.086,11.086,0,0,0,2.345-.978,12.069,12.069,0,0,0,1.654-1.159,2.549,2.549,0,0,0-.093.817c0,.014,0,.025,0,.039a10.946,10.946,0,0,1-1.824,1.108,11.968,11.968,0,0,1-2.178.818l-.093.024a1.232,1.232,0,0,1-.091.125,2.065,2.065,0,0,1-.9.585,11.24,11.24,0,0,0,1.223-.259,12.578,12.578,0,0,0,2.273-.855A11.445,11.445,0,0,0,28.7,48.1l.04.014a2.558,2.558,0,0,0,.946-.011,3.8,3.8,0,0,0,1.164-.44,6.322,6.322,0,0,0,1.417-1.131.266.266,0,0,0,.066-.244.26.26,0,0,0-.169-.189l-.041-.013a3.816,3.816,0,0,0,.422-.287,5.522,5.522,0,0,0,1.215-1.369.265.265,0,0,0-.118-.386c.091-.074.18-.15.266-.233a5.457,5.457,0,0,0,1.065-1.488.266.266,0,0,0-.2-.382,3.854,3.854,0,0,0,.267-.294,5.4,5.4,0,0,0,.883-1.6.266.266,0,0,0-.238-.357h0c.078-.1.153-.2.223-.3a5.392,5.392,0,0,0,.717-1.678.266.266,0,0,0-.061-.245.26.26,0,0,0-.214-.084c.073-.115.141-.235.2-.359a5.439,5.439,0,0,0,.5-1.753.27.27,0,0,0-.091-.235M36.7,30.817a.016.016,0,0,1,.015,0,.013.013,0,0,1,.007.012,4.618,4.618,0,0,1-.129,1.258,3.091,3.091,0,0,1-.45,1.019,2.357,2.357,0,0,1-.6.609.009.009,0,0,1-.007,0,.019.019,0,0,1-.01,0,3.54,3.54,0,0,1-.686-2.4.013.013,0,0,1,.008-.011.015.015,0,0,1,.015,0,4.205,4.205,0,0,1,.584.85.2.2,0,0,0,.362-.02,3.159,3.159,0,0,1,.892-1.321Zm-.258-2.412a.013.013,0,0,1,.015,0,.012.012,0,0,1,.008.011,4.648,4.648,0,0,1,0,1.267,3.14,3.14,0,0,1-.35,1.06,2.4,2.4,0,0,1-.55.673.017.017,0,0,1-.01,0,.014.014,0,0,1-.008,0,3.635,3.635,0,0,1-.89-2.31.016.016,0,0,1,.007-.013.014.014,0,0,1,.016,0,4.29,4.29,0,0,1,.642.769.2.2,0,0,0,.359-.055,3.156,3.156,0,0,1,.757-1.4Zm-.379-2.293a.016.016,0,0,1,.014,0,.012.012,0,0,1,.01.011,4.648,4.648,0,0,1,.058,1.266,3.149,3.149,0,0,1-.3,1.076,2.376,2.376,0,0,1-.507.688.011.011,0,0,1-.01,0l-.008,0a3.069,3.069,0,0,1-.912-1.6,4.756,4.756,0,0,1-.117-.673.012.012,0,0,1,.007-.013.011.011,0,0,1,.015,0,4.254,4.254,0,0,1,.7.756.194.194,0,0,0,.2.081.2.2,0,0,0,.154-.154,3.158,3.158,0,0,1,.693-1.432Zm-18.361.2c.006-.05.015-.1.025-.156a8.166,8.166,0,0,1,1.4-3.294,5.392,5.392,0,0,1,.826-.9c.05-.035.1-.074.146-.115a.342.342,0,0,0-.417-.542c-.013.008-.069.05-.159.123-.289.2-.516.207-.64.137a.4.4,0,0,1-.146-.439,2.4,2.4,0,0,1,.6-.96l.016-.017a2.972,2.972,0,0,1,2.049-.947h.031a2.439,2.439,0,0,1,.884.128A2.628,2.628,0,0,1,23.85,20.7,14.6,14.6,0,0,1,25,23.687a4.751,4.751,0,0,1-1.311-.723.343.343,0,1,0-.439.527,5.1,5.1,0,0,0,1.928.955c.091.429.16.836.221,1.221a4.971,4.971,0,0,0-1.089-.384,5.509,5.509,0,0,1-.587-.18,6.057,6.057,0,0,1-1.321-.762.342.342,0,1,0-.425.536,6.671,6.671,0,0,0,1.49.863,6.1,6.1,0,0,0,.668.2c.906.239,1.325.431,1.341.9a.6.6,0,0,1-.12.2,1.673,1.673,0,0,1-1.156.338h-.864a3.614,3.614,0,0,1-1.783-.521C19.692,25.659,18.858,25.806,17.7,26.315Zm3.4,1.067H18.416a.7.7,0,0,1-.578-.21.573.573,0,0,1-.081-.131c1.172-.537,1.731-.68,3.341.342Zm.917,4.6V28.066h2.154c.018,0,.058,0,.112,0a3.091,3.091,0,0,0,.488-.039,1.828,1.828,0,0,0,1.089-.52,1.3,1.3,0,0,0,.281-.489.386.386,0,0,0,.018-.06,1.7,1.7,0,0,0,.027-.685L26.17,26.2a17.147,17.147,0,0,0-1.714-5.82,3.257,3.257,0,0,0-3.081-1.861A3.619,3.619,0,0,0,18.83,19.7a3.023,3.023,0,0,0-.773,1.315,1.063,1.063,0,0,0,.484,1.149,1,1,0,0,0,.191.083,8.666,8.666,0,0,0-1.684,3.777,2.586,2.586,0,0,0-.04.837.289.289,0,0,0,.008.061,1.4,1.4,0,0,0,.289.682,1.355,1.355,0,0,0,1.108.461h2.768v6.306a3.109,3.109,0,0,0-1.967.745c-.979.654-4.276,1.3-9.8,1.934a21.915,21.915,0,0,1-.583-5.07,21.6,21.6,0,0,1,1.012-6.6A17.982,17.982,0,0,1,12.594,20a13.171,13.171,0,0,1,4.06-3.609,9.958,9.958,0,0,1,9.893,0A13.237,13.237,0,0,1,30.607,20a17.945,17.945,0,0,1,2.752,5.38,21.57,21.57,0,0,1,1.01,6.6,21.868,21.868,0,0,1-.6,5.141,36.231,36.231,0,0,1-7.456-1.478c-.282-.095-.541-.188-.768-.271a5.48,5.48,0,0,0-2.144-.486l-.122.006a4.48,4.48,0,0,0-1.262-.426ZM27.236,14.3a5.085,5.085,0,0,1-.878.256,3.6,3.6,0,0,1-.645.062,2.091,2.091,0,0,1-1.236-.357.015.015,0,0,1,0-.012.015.015,0,0,1,.006-.011,2.729,2.729,0,0,1,.728-.285,2.625,2.625,0,0,1,1.05-.033,3.108,3.108,0,0,1,.983.355.017.017,0,0,1,.007.013A.017.017,0,0,1,27.236,14.3Zm.486,1.362a.014.014,0,0,1,0,.012.015.015,0,0,1-.008.01,2.261,2.261,0,0,1-.635.119h-.095a2.7,2.7,0,0,1-1.666-.625.017.017,0,0,1-.006-.014.018.018,0,0,1,.009-.01,3.02,3.02,0,0,1,.719-.136A2.05,2.05,0,0,1,27.722,15.657Zm-2.643-2.119a3.989,3.989,0,0,1-1.2.316.2.2,0,0,0-.087.359,4.162,4.162,0,0,1,.782.731.017.017,0,0,1,0,.016.017.017,0,0,1-.012.007h0a3.137,3.137,0,0,1-2.323-1.06.014.014,0,0,1,0-.019,1.855,1.855,0,0,1,.635-.387,3.632,3.632,0,0,1,2.2.011.013.013,0,0,1,.01.012.017.017,0,0,1-.006.012Zm-2.469-.4a3.464,3.464,0,0,1-1.127.55.2.2,0,0,0-.011.374,3.534,3.534,0,0,1,.891.521.013.013,0,0,1,0,.015.011.011,0,0,1-.011.008c-.139.013-.306.024-.492.024a3.294,3.294,0,0,1-1.977-.564.012.012,0,0,1,0-.018,1.83,1.83,0,0,1,.54-.5A3.646,3.646,0,0,1,22.6,13.11a.021.021,0,0,1,.012.01.011.011,0,0,1-.007.013Zm-2.537.042a2.731,2.731,0,0,1-1.017.776.2.2,0,0,0,.05.372,4.188,4.188,0,0,1,.985.33.017.017,0,0,1,.007.013.018.018,0,0,1-.01.012,4.848,4.848,0,0,1-.653.165,3.979,3.979,0,0,1-.683.062,2.823,2.823,0,0,1-1.183-.241.014.014,0,0,1-.006-.018,1.81,1.81,0,0,1,.415-.607,3.643,3.643,0,0,1,2.081-.887.015.015,0,0,1,.014.007.014.014,0,0,1,0,.015ZM17.7,13.6a3.181,3.181,0,0,1-.892,1.136.2.2,0,0,0,.129.35h0a3.919,3.919,0,0,1,.5.036,3.3,3.3,0,0,1,.531.111.013.013,0,0,1,0,.024,5,5,0,0,1-.629.267,3.631,3.631,0,0,1-1.191.216,2.545,2.545,0,0,1-.7-.094.015.015,0,0,1-.009-.016c.084-.415.471-1.449,2.24-2.049a.014.014,0,0,1,.014,0A.011.011,0,0,1,17.7,13.6ZM35.328,23.788a.013.013,0,0,1,.024,0,4.688,4.688,0,0,1,.231,1.249,3.112,3.112,0,0,1-.15,1.1,2.4,2.4,0,0,1-.408.75.013.013,0,0,1-.011.005.009.009,0,0,1-.008,0,2.953,2.953,0,0,1-1.149-1.478,4.448,4.448,0,0,1-.2-.644.012.012,0,0,1,0-.014.016.016,0,0,1,.016,0,4.207,4.207,0,0,1,.81.66.2.2,0,0,0,.342-.12A3.144,3.144,0,0,1,35.328,23.788Zm-1.39-.489a.2.2,0,0,0,.113-.186,3.118,3.118,0,0,1,.329-1.554c0-.005.005-.009.012-.008a.017.017,0,0,1,.013.008,4.661,4.661,0,0,1,.359,1.217,3.121,3.121,0,0,1-.033,1.115,2.377,2.377,0,0,1-.329.789.01.01,0,0,1-.01.007h-.007a2.967,2.967,0,0,1-1.295-1.354,4.348,4.348,0,0,1-.261-.619.014.014,0,0,1,0-.015.013.013,0,0,1,.015,0,4.157,4.157,0,0,1,.875.574A.2.2,0,0,0,33.938,23.3Zm-.989-2.044h0a.2.2,0,0,0,.1-.2,3.153,3.153,0,0,1,.144-1.579.014.014,0,0,1,.012-.008.013.013,0,0,1,.013.006,4.661,4.661,0,0,1,.5,1.17,3.107,3.107,0,0,1,.1,1.111,2.387,2.387,0,0,1-.231.82.013.013,0,0,1-.013.008h0a2.959,2.959,0,0,1-1.482-1.211,3.929,3.929,0,0,1-.325-.61.015.015,0,0,1,0-.014.014.014,0,0,1,.016-.005,3.207,3.207,0,0,1,.956.5A.2.2,0,0,0,32.949,21.256Zm-1.481-1.9a.2.2,0,0,0,.3-.221,3.481,3.481,0,0,1-.1-1.565.012.012,0,0,1,.01-.011.015.015,0,0,1,.015,0,4.679,4.679,0,0,1,.668,1.056,3.145,3.145,0,0,1,.276,1.081,2.366,2.366,0,0,1-.1.845.014.014,0,0,1-.013.009h0A2.99,2.99,0,0,1,30.9,19.6a4.511,4.511,0,0,1-.454-.568.016.016,0,0,1,0-.015.014.014,0,0,1,.012-.007,2.234,2.234,0,0,1,1.006.347Zm-1.479-1.692a.2.2,0,0,0,.25-.276,3.122,3.122,0,0,1-.367-1.539.011.011,0,0,1,.007-.011.016.016,0,0,1,.015,0,4.72,4.72,0,0,1,.823.939,3.236,3.236,0,0,1,.45,1.028,2.529,2.529,0,0,1,.053.87.013.013,0,0,1-.013.012h-.033a2.879,2.879,0,0,1-1.663-.664,5.165,5.165,0,0,1-.569-.512.014.014,0,0,1,0-.015.012.012,0,0,1,.012-.008h.074a3.026,3.026,0,0,1,.962.178ZM29.4,16.126a2.624,2.624,0,0,1,.17.966.013.013,0,0,1-.013.013c-.034,0-.069,0-.1,0a4.7,4.7,0,0,1-2.261-.881.013.013,0,0,1-.005-.014.013.013,0,0,1,.01-.01,2.718,2.718,0,0,1,1.01.014.2.2,0,0,0,.213-.085.2.2,0,0,0-.012-.23,4.041,4.041,0,0,1-.63-1.182.016.016,0,0,1,0-.014.015.015,0,0,1,.015,0A2.436,2.436,0,0,1,29.4,16.127Zm-15.15-2.274a4.088,4.088,0,0,1,.512-.219,10.85,10.85,0,0,1,1.168-.33,3.116,3.116,0,0,0,.9-.353.079.079,0,0,0,.034-.082A.076.076,0,0,0,16.8,12.8l-2.723-.4,2.723-.4a.078.078,0,0,0,.067-.078.08.08,0,0,0-.067-.078,4.477,4.477,0,0,1-1.05-.319c-.154-.069-.287-.141-.414-.211a3.118,3.118,0,0,0-1.075-.4,3.819,3.819,0,0,1,.557-.006,10.934,10.934,0,0,1,1.205.142,3.136,3.136,0,0,0,.964.018.078.078,0,0,0,.064-.063.08.08,0,0,0-.037-.082l-2.366-1.4,2.671.672a.079.079,0,0,0,.092-.046.08.08,0,0,0-.032-.1,4.524,4.524,0,0,1-.85-.7c-.117-.124-.211-.241-.3-.354a3.045,3.045,0,0,0-.84-.78,3.91,3.91,0,0,1,.517.207,10.672,10.672,0,0,1,1.059.593,3.136,3.136,0,0,0,.884.386.082.082,0,0,0,.084-.034.081.081,0,0,0,0-.09l-1.649-2.2,2.212,1.636a.081.081,0,0,0,.1-.007.079.079,0,0,0,.007-.1,4.521,4.521,0,0,1-.514-.966c-.061-.159-.1-.3-.144-.442a3.078,3.078,0,0,0-.477-1.042,3.823,3.823,0,0,1,.4.39,10.924,10.924,0,0,1,.75.955,3.131,3.131,0,0,0,.667.7.082.082,0,0,0,.091,0,.078.078,0,0,0,.03-.084l-.684-2.66L20.14,7.81a.079.079,0,0,0,.144-.06,4.482,4.482,0,0,1-.1-1.092c.006-.17.022-.32.037-.463a3.052,3.052,0,0,0-.04-1.145,4.06,4.06,0,0,1,.218.513,11.317,11.317,0,0,1,.327,1.168,3.124,3.124,0,0,0,.35.9.079.079,0,0,0,.145-.031L21.6,4.892,22,7.6a.079.079,0,0,0,.079.067.077.077,0,0,0,.076-.067,4.551,4.551,0,0,1,.32-1.05c.069-.155.14-.287.21-.416a3.085,3.085,0,0,0,.4-1.074,3.891,3.891,0,0,1,.007.557,11.289,11.289,0,0,1-.14,1.205,3.077,3.077,0,0,0-.017.963.078.078,0,0,0,.145.026l1.406-2.359-.67,2.664a.078.078,0,0,0,.143.06,4.551,4.551,0,0,1,.7-.85c.124-.116.241-.211.354-.3a3.06,3.06,0,0,0,.779-.841,3.879,3.879,0,0,1-.208.517,10.939,10.939,0,0,1-.592,1.06,3.143,3.143,0,0,0-.384.885.079.079,0,0,0,.034.083.076.076,0,0,0,.089,0l2.2-1.648L25.283,9.291a.08.08,0,0,0,.008.1.079.079,0,0,0,.1.006,4.537,4.537,0,0,1,.968-.515c.16-.06.3-.1.442-.144a3.1,3.1,0,0,0,1.042-.476,4.071,4.071,0,0,1-.389.4,10.784,10.784,0,0,1-.955.75,3.056,3.056,0,0,0-.694.669.078.078,0,0,0,0,.09.077.077,0,0,0,.084.031l2.66-.678L26.2,10.938a.079.079,0,0,0,.058.144,4.543,4.543,0,0,1,1.093-.1c.17.006.32.021.463.036a3.052,3.052,0,0,0,1.145-.041,3.987,3.987,0,0,1-.512.219,11.07,11.07,0,0,1-1.169.327,3.115,3.115,0,0,0-.9.35.078.078,0,0,0,.03.144l2.717.39-2.719.407a.077.077,0,0,0-.066.077.08.08,0,0,0,.066.079,4.448,4.448,0,0,1,1.05.321c.155.07.287.142.415.211a3.02,3.02,0,0,0,1.073.4,3.9,3.9,0,0,1-.557.005,10.851,10.851,0,0,1-1.2-.145l-.068-.011a3.241,3.241,0,0,0-1.329-.282.183.183,0,0,0,0-.055.211.211,0,0,0-.137-.153,5.882,5.882,0,0,0-1.433-.32l-.066,0-.043,0a.669.669,0,0,1-.072,0H24c-.036,0-.071,0-.106,0a3.6,3.6,0,0,0-.624.05.013.013,0,0,0,0-.006.234.234,0,0,0-.013-.088l-.007-.016a.216.216,0,0,0-.162-.116l-.129-.016-.042,0-.084-.01a.184.184,0,0,1-.05,0L22.7,12.7a5.174,5.174,0,0,0-1.4.065q-.175.035-.339.084a.093.093,0,0,0-.023.006l-.055.017-.022.007c-.025.008-.05.016-.073.025-.054.02-.107.039-.159.062a.024.024,0,0,0,0-.008.009.009,0,0,1,0,0,.112.112,0,0,0,0-.02h0a.015.015,0,0,1,0,0,.209.209,0,0,0-.054-.177h0l-.015-.014,0,0a.21.21,0,0,0-.153-.05,5.559,5.559,0,0,0-1.739.4,3.69,3.69,0,0,0-.464.243.465.465,0,0,0,.006-.058h0a.215.215,0,0,0-.077-.179l-.019-.013-.005,0-.014-.007-.006,0a.217.217,0,0,0-.144-.012,5.381,5.381,0,0,0-1.655.739l-.04.027c-.12.008-.25.011-.385.007-.1,0-.434-.032-.463-.036A3.111,3.111,0,0,0,14.252,13.852Zm1.044.555a.016.016,0,0,1,.015,0,.01.01,0,0,1,.006.012,3.119,3.119,0,0,1-.514,1.5.2.2,0,0,0,.2.3,4.235,4.235,0,0,1,1.02-.057.013.013,0,0,1,.013.009.015.015,0,0,1,0,.015,3.884,3.884,0,0,1-2.229.926c-.033,0-.066,0-.1,0a.014.014,0,0,1-.013-.013A3.174,3.174,0,0,1,15.3,14.407Zm-3.217,3.411a3.093,3.093,0,0,1,.445-1.024,4.745,4.745,0,0,1,.85-.956.012.012,0,0,1,.014,0,.014.014,0,0,1,.009.011,3.122,3.122,0,0,1-.368,1.54.2.2,0,0,0,.239.279,3.869,3.869,0,0,1,.991-.18.015.015,0,0,1,.013.008.013.013,0,0,1,0,.015,6.4,6.4,0,0,1-.585.513,2.815,2.815,0,0,1-1.563.671h-.068a.014.014,0,0,1-.013-.011,2.306,2.306,0,0,1,.037-.867Zm-.521-.274a.015.015,0,0,1,.014,0,.014.014,0,0,1,.009.01,3.112,3.112,0,0,1-.115,1.583.2.2,0,0,0,.3.225,2.276,2.276,0,0,1,.987-.343.014.014,0,0,1,.014.022A3.562,3.562,0,0,1,10.71,20.56h0a.014.014,0,0,1-.013-.009A3.128,3.128,0,0,1,11.558,17.544ZM9.495,20.635a4.686,4.686,0,0,1,.55-1.149.018.018,0,0,1,.013-.007.016.016,0,0,1,.011.009,3.121,3.121,0,0,1,.077,1.587.2.2,0,0,0,.333.18,1.925,1.925,0,0,1,.964-.471.013.013,0,0,1,.013.006.01.01,0,0,1,0,.013,4.3,4.3,0,0,1-.389.647,2.862,2.862,0,0,1-1.5,1.129h0a.014.014,0,0,1-.012-.008,2.357,2.357,0,0,1-.2-.832,3.1,3.1,0,0,1,.146-1.1ZM8.381,22.769a4.656,4.656,0,0,1,.372-1.216.013.013,0,0,1,.011-.007h0a.013.013,0,0,1,.012.007,3.127,3.127,0,0,1,.315,1.559A.2.2,0,0,0,9.2,23.3a.2.2,0,0,0,.216-.028,4.028,4.028,0,0,1,.927-.587.014.014,0,0,1,.013,0,.015.015,0,0,1,0,.014,3.029,3.029,0,0,1-1.622,1.978H8.735a.011.011,0,0,1-.011-.007,2.337,2.337,0,0,1-.319-.788A3.118,3.118,0,0,1,8.381,22.769Zm-.818,2.253a4.684,4.684,0,0,1,.215-1.253.014.014,0,0,1,.025,0,3.144,3.144,0,0,1,.51,1.507.2.2,0,0,0,.137.173.193.193,0,0,0,.211-.062,3.567,3.567,0,0,1,.845-.7.012.012,0,0,1,.014,0,.013.013,0,0,1,.005.013,3.046,3.046,0,0,1-.135.62,2.832,2.832,0,0,1-1.224,1.555.011.011,0,0,1-.007,0,.011.011,0,0,1-.01-.005,2.349,2.349,0,0,1-.42-.746,3.117,3.117,0,0,1-.165-1.1ZM7.1,26.086a.015.015,0,0,1,.01-.01.012.012,0,0,1,.013,0,3.137,3.137,0,0,1,.693,1.433.2.2,0,0,0,.356.073,4.033,4.033,0,0,1,.73-.78.014.014,0,0,1,.015,0,.013.013,0,0,1,.007.012,3.557,3.557,0,0,1-.084.616,3.133,3.133,0,0,1-.978,1.679.01.01,0,0,1-.008,0,.011.011,0,0,1-.009,0,2.364,2.364,0,0,1-.5-.686,3.115,3.115,0,0,1-.3-1.075A4.629,4.629,0,0,1,7.1,26.086Zm-.35,2.325a.014.014,0,0,1,.009-.011.012.012,0,0,1,.014,0,3.156,3.156,0,0,1,.76,1.4.2.2,0,0,0,.171.15.2.2,0,0,0,.2-.111,2.908,2.908,0,0,1,.615-.811.016.016,0,0,1,.015,0,.013.013,0,0,1,.007.012,4.413,4.413,0,0,1-.057.7,2.828,2.828,0,0,1-.824,1.667.014.014,0,0,1-.009,0,.011.011,0,0,1-.009,0,2.364,2.364,0,0,1-.538-.667,3.119,3.119,0,0,1-.35-1.06,4.629,4.629,0,0,1,0-1.267Zm-.192,2.442a.014.014,0,0,1,.008-.012.016.016,0,0,1,.014,0c.05.045.1.1.15.147a3.253,3.253,0,0,1,.7,1.2.2.2,0,0,0,.382-.028,1.714,1.714,0,0,1,.5-.879.018.018,0,0,1,.014,0,.014.014,0,0,1,.009.012,3.639,3.639,0,0,1,0,1.153,2.353,2.353,0,0,1-.68,1.339.015.015,0,0,1-.01,0,.01.01,0,0,1-.007,0A3.14,3.14,0,0,1,6.553,30.853Zm-.1,2.37a.013.013,0,0,1,.015,0c.055.041.109.085.163.131a3.252,3.252,0,0,1,.821,1.126.2.2,0,0,0,.18.118h0a.193.193,0,0,0,.179-.121,4.07,4.07,0,0,1,.564-.935.013.013,0,0,1,.014,0,.011.011,0,0,1,.009.011,3.039,3.039,0,0,1-.559,2.487.015.015,0,0,1-.011,0H7.83a3.164,3.164,0,0,1-1.38-2.8.016.016,0,0,1,.007-.017Zm.124,2.466a.016.016,0,0,1,0-.014.014.014,0,0,1,.014,0,3.164,3.164,0,0,1,1.189,1.07.2.2,0,0,0,.357-.068l.013,0-.013,0a4.048,4.048,0,0,1,.4-1.035.014.014,0,0,1,.012-.007.014.014,0,0,1,.011.008,2.816,2.816,0,0,1,.214.629,2.643,2.643,0,0,1-.331,1.94.012.012,0,0,1-.011.007h0a2.42,2.42,0,0,1-.739-.45,3.161,3.161,0,0,1-.69-.884,4.666,4.666,0,0,1-.429-1.2Zm.558,2.288a.014.014,0,0,1,0-.014.016.016,0,0,1,.014,0c.064.026.126.056.189.088a3.232,3.232,0,0,1,1.077.893.2.2,0,0,0,.35-.095,4.1,4.1,0,0,1,.306-1.021.014.014,0,0,1,.013-.008.013.013,0,0,1,.012.009A3.092,3.092,0,0,1,9.2,40.355a.013.013,0,0,1-.013.008h0a3.191,3.191,0,0,1-2.043-2.385Zm1.38,3.391a4.641,4.641,0,0,1-.65-1.091.015.015,0,0,1,0-.014.013.013,0,0,1,.014,0c.066.019.131.04.2.065a3.281,3.281,0,0,1,1.173.765.2.2,0,0,0,.213.044.2.2,0,0,0,.124-.179,4.116,4.116,0,0,1,.179-1.035.015.015,0,0,1,.012-.009.014.014,0,0,1,.013.007,4.156,4.156,0,0,1,.284.608,2.874,2.874,0,0,1,.1,1.88.014.014,0,0,1-.013.011h0a2.464,2.464,0,0,1-.807-.3,3.2,3.2,0,0,1-.848-.742Zm.335,1.086a.014.014,0,0,1,.014-.021,3.206,3.206,0,0,1,1.46.668.2.2,0,0,0,.319-.178A3.636,3.636,0,0,1,10.7,41.9a.017.017,0,0,1,.01-.011.014.014,0,0,1,.014.006,4.683,4.683,0,0,1,.35.591,3.049,3.049,0,0,1,.335,1.816.013.013,0,0,1-.013.012h0a2.462,2.462,0,0,1-.837-.211,3.2,3.2,0,0,1-.929-.638,4.7,4.7,0,0,1-.776-1.008ZM13.4,46.414a3.786,3.786,0,0,1-.241-1,.013.013,0,0,1,.007-.014.012.012,0,0,1,.014,0,2.928,2.928,0,0,1,1.179,2.254.012.012,0,0,1-.011.012,1.727,1.727,0,0,1-.309.025,2.307,2.307,0,0,1-.47-.05,4.268,4.268,0,0,1-2.023-1.16.013.013,0,0,1,0-.014.014.014,0,0,1,.011-.009,3.24,3.24,0,0,1,1.593.213.2.2,0,0,0,.254-.26ZM11.61,44.99a.2.2,0,0,0,.221-.006.2.2,0,0,0,.077-.209,3.231,3.231,0,0,1-.065-1.016.016.016,0,0,1,.01-.011.012.012,0,0,1,.014,0,3.618,3.618,0,0,1,.943,2.318.017.017,0,0,1-.013.014H12.7a2.5,2.5,0,0,1-.761-.125,3.218,3.218,0,0,1-.991-.539,4.777,4.777,0,0,1-.872-.921.017.017,0,0,1,0-.015.01.01,0,0,1,.012-.007,3.238,3.238,0,0,1,1.519.513Zm5.672-4.769c-.053,0-.11-.008-.169-.018-.2-.032-.346-.1-.379-.174-.015-.035-.062-.145.073-.324a1.217,1.217,0,0,1,.957-.434.082.082,0,0,0,.024,0,.9.9,0,0,1,.18.036,2.655,2.655,0,0,0-.2.181A1.561,1.561,0,0,0,17.282,40.221Zm1.12.683a1.226,1.226,0,0,1-.19-.046c-.336-.11-.361-.288-.368-.36-.011-.179.081-.336.333-.579.4-.387.717-.5.989-.367a.378.378,0,0,1,.2.183.189.189,0,0,1,0,.092c-.068.044-.133.089-.194.132A1.808,1.808,0,0,0,18.4,40.9Zm1.367.562a1.1,1.1,0,0,1-.694-.061.271.271,0,0,1-.114-.211c-.029-.292.337-.6.557-.75.519-.364.794-.488,1.056-.262a.251.251,0,0,1,.111.184.567.567,0,0,1-.232.323A1.917,1.917,0,0,0,19.768,41.466Zm2-.337c-.015.145-.209.313-.3.372h0a.1.1,0,0,0-.02.013h0a1.4,1.4,0,0,1-.895.313.4.4,0,0,1-.233-.138,1.765,1.765,0,0,1,.765-.7c.385-.222.561-.095.578-.082.12.123.113.2.11.222ZM26.4,39.76a.683.683,0,0,1-.477.154,5.851,5.851,0,0,0-1.9-1.693.3.3,0,0,0-.261.532,5.275,5.275,0,0,1,1.68,1.511.73.73,0,0,1-.111.176.716.716,0,0,1-.587.22,2.775,2.775,0,0,0-.443-.646,5.979,5.979,0,0,0-.864-.733.3.3,0,1,0-.34.483,5.33,5.33,0,0,1,.756.637,2.082,2.082,0,0,1,.355.508.856.856,0,0,1-.162.23.545.545,0,0,1-.485.145,3.6,3.6,0,0,0-.6-.92.3.3,0,0,0-.443.393,3.049,3.049,0,0,1,.472.7,1.057,1.057,0,0,1-.2.106,1.123,1.123,0,0,1-.6.06.9.9,0,0,0,.17-.427.827.827,0,0,0-.284-.7.888.888,0,0,0-.8-.2.839.839,0,0,0-.313-.559,1.006,1.006,0,0,0-1.005-.206l-.03.011a.92.92,0,0,0-.494-.517,1.121,1.121,0,0,0-.875-.053,1.3,1.3,0,0,0-.716-.284,1.794,1.794,0,0,0-1.353.5c-1.9,1.015-4.343,2.115-5.318,2.546a19.075,19.075,0,0,1-1.324-3.149q-.15-.473-.281-.954c2.782-.318,5.018-.644,6.647-.97a10.388,10.388,0,0,0,3.34-1.054l.005,0a2.457,2.457,0,0,1,1.731-.633c.2.017.375.038.531.063a1.767,1.767,0,0,0-.45.231c-.259.182-.418.311-.558.426a4.832,4.832,0,0,1-.437.326,4.969,4.969,0,0,1-.458.244c-.378.186-.677.331-.771.578a.769.769,0,0,0,.126.771,1.164,1.164,0,0,0,1.13.35,3.269,3.269,0,0,0,1.324-.4c.137-.08.259-.16.365-.23a1.592,1.592,0,0,1,.42-.23l.018,0a1.86,1.86,0,0,1,1.172.118,6.735,6.735,0,0,1,1.161.634,7.663,7.663,0,0,1,1.707,1.573.578.578,0,0,1-.162.341Zm1.152-.25h0a3.384,3.384,0,0,1-.579-.518h0l-.014-.017a.535.535,0,0,1-.047-.058,8.182,8.182,0,0,0-1.735-1.56,3.741,3.741,0,0,0-2.805-.83,1.968,1.968,0,0,0-.615.314c-.1.069-.212.141-.334.211a2.638,2.638,0,0,1-1.064.32c-.323.018-.525.02-.614-.1s-.075-.153-.059-.2a2.757,2.757,0,0,1,.482-.271,5.212,5.212,0,0,0,.521-.279,5.261,5.261,0,0,0,.488-.364c.134-.108.284-.231.526-.4a2.092,2.092,0,0,1,1.249-.256c.085,0,.173,0,.265-.005h0c.066,0,.133,0,.2-.008a5.028,5.028,0,0,1,1.915.45c.231.083.493.177.782.275h.005c.011,0,1.082.343,2.569.7a30.961,30.961,0,0,0,4.919.8q-.12.442-.259.878a18.924,18.924,0,0,1-1.382,3.249,22.763,22.763,0,0,1-4.415-2.322Zm4.1,6.977a4.231,4.231,0,0,1-2.023,1.159,2.308,2.308,0,0,1-.47.05,1.727,1.727,0,0,1-.309-.025.012.012,0,0,1-.012-.012,2.486,2.486,0,0,1,.684-1.749,4.07,4.07,0,0,1,.506-.492.012.012,0,0,1,.015,0,.017.017,0,0,1,.007.013,4.2,4.2,0,0,1-.253.989.2.2,0,0,0,.254.26,3.244,3.244,0,0,1,1.592-.212.014.014,0,0,1,.011.011.011.011,0,0,1,0,.007ZM33.153,44.5a4.734,4.734,0,0,1-.875.921,3.171,3.171,0,0,1-.99.539,2.52,2.52,0,0,1-.76.125h-.094a.016.016,0,0,1-.013-.014,2.925,2.925,0,0,1,.522-1.786,4.39,4.39,0,0,1,.411-.544.012.012,0,0,1,.014,0,.015.015,0,0,1,.009.012,4.042,4.042,0,0,1-.056,1.034.2.2,0,0,0,.3.206,3.222,3.222,0,0,1,1.521-.512s.01,0,.012.006a.014.014,0,0,1,0,.013Zm1.225-2.046a4.708,4.708,0,0,1-.773,1.007,3.2,3.2,0,0,1-.927.638,2.461,2.461,0,0,1-.837.211h0a.014.014,0,0,1-.013-.011,2.933,2.933,0,0,1,.33-1.831,4.4,4.4,0,0,1,.35-.582.011.011,0,0,1,.013-.006.014.014,0,0,1,.011.011,4.087,4.087,0,0,1,.053,1.035.2.2,0,0,0,.32.174,3.238,3.238,0,0,1,1.459-.67.017.017,0,0,1,.014.007.014.014,0,0,1,0,.016Zm.983-2.239a4.688,4.688,0,0,1-.663,1.122,3.185,3.185,0,0,1-.845.74,2.453,2.453,0,0,1-.8.3h0a.013.013,0,0,1-.013-.01,2.967,2.967,0,0,1,.11-1.884,3.984,3.984,0,0,1,.272-.59.012.012,0,0,1,.013-.007.016.016,0,0,1,.011.01,4.581,4.581,0,0,1,.184,1.026.2.2,0,0,0,.129.176.2.2,0,0,0,.214-.05,2.859,2.859,0,0,1,1.166-.794c.071-.023.142-.044.211-.06a.015.015,0,0,1,.014,0,.011.011,0,0,1,0,.012Zm.711-2.249a4.648,4.648,0,0,1-.537,1.149,3.152,3.152,0,0,1-.766.815,2.452,2.452,0,0,1-.772.382h0a.013.013,0,0,1-.013-.008,3.121,3.121,0,0,1-.081-1.894,4.922,4.922,0,0,1,.212-.661.014.014,0,0,1,.012-.008h0a.013.013,0,0,1,.012.008,4.443,4.443,0,0,1,.287,1.054.2.2,0,0,0,.35.1,3.211,3.211,0,0,1,1.281-.96.014.014,0,0,1,.014,0,.014.014,0,0,1,.006.017Zm.076-1.17a3.149,3.149,0,0,1-.658.907,2.389,2.389,0,0,1-.718.473h0a.016.016,0,0,1-.013-.006,3.093,3.093,0,0,1-.324-1.906,4.473,4.473,0,0,1,.138-.67.015.015,0,0,1,.012-.009.013.013,0,0,1,.012.007,4.483,4.483,0,0,1,.415,1.034.2.2,0,0,0,.16.147.2.2,0,0,0,.2-.09,3.2,3.2,0,0,1,1.149-1.108.017.017,0,0,1,.015,0,.016.016,0,0,1,.006.013,4.667,4.667,0,0,1-.39,1.207Zm.35-2.349a3.13,3.13,0,0,1-.55.971,2.413,2.413,0,0,1-.661.55h-.006a.015.015,0,0,1-.011-.006,2.891,2.891,0,0,1-.534-1.817,3.952,3.952,0,0,1,.072-.682.016.016,0,0,1,.01-.011.017.017,0,0,1,.014,0,3.468,3.468,0,0,1,.511.937.2.2,0,0,0,.365.023,3.16,3.16,0,0,1,1.02-1.226.014.014,0,0,1,.015,0,.017.017,0,0,1,.007.014,4.688,4.688,0,0,1-.251,1.239Z" transform="translate(-5.981 -4)" fill="#1d1d1b"/>
  <path id="Path_531" data-name="Path 531" d="M466.285,833.619a3.231,3.231,0,0,0-1.592.213.2.2,0,0,1-.213-.046.2.2,0,0,1-.041-.215,4.206,4.206,0,0,0,.253-.989.017.017,0,0,0-.008-.014.014.014,0,0,0-.015,0,4.088,4.088,0,0,0-.507.492,2.5,2.5,0,0,0-.683,1.749.015.015,0,0,0,.012.014,1.857,1.857,0,0,0,.309.025,2.319,2.319,0,0,0,.47-.05,4.235,4.235,0,0,0,2.023-1.158.014.014,0,0,0,0-.015.012.012,0,0,0-.012-.009" transform="translate(-440.613 -791.156)" fill="#289b38"/>
  <path id="Path_532" data-name="Path 532" d="M118.967,832.331a.017.017,0,0,0-.016,0,.015.015,0,0,0-.006.015,3.8,3.8,0,0,0,.242,1,.2.2,0,0,1-.254.261,3.222,3.222,0,0,0-1.593-.214.014.014,0,0,0-.012.009.015.015,0,0,0,0,.015,4.3,4.3,0,0,0,2.023,1.16,2.449,2.449,0,0,0,.47.05,1.837,1.837,0,0,0,.309-.025.015.015,0,0,0,.011-.013,2.932,2.932,0,0,0-1.178-2.255" transform="translate(-111.762 -790.93)" fill="#289b38"/>
  <path id="Path_533" data-name="Path 533" d="M497.594,799.857a3.216,3.216,0,0,0-1.522.509.2.2,0,0,1-.3-.206,4.031,4.031,0,0,0,.056-1.034.011.011,0,0,0-.009-.011.013.013,0,0,0-.014,0,4.378,4.378,0,0,0-.411.543,2.925,2.925,0,0,0-.522,1.786.014.014,0,0,0,.013.013c.027,0,.058,0,.094,0a2.5,2.5,0,0,0,.761-.125,3.209,3.209,0,0,0,.989-.539,4.734,4.734,0,0,0,.875-.921.017.017,0,0,0,0-.015.013.013,0,0,0-.013-.007" transform="translate(-470.432 -759.375)" fill="#289b38"/>
  <path id="Path_534" data-name="Path 534" d="M525,762.518a3.227,3.227,0,0,0-1.458.666.2.2,0,0,1-.217.019.2.2,0,0,1-.1-.193,4.134,4.134,0,0,0-.053-1.035.014.014,0,0,0-.025-.005,4.5,4.5,0,0,0-.35.582,2.915,2.915,0,0,0-.33,1.83.015.015,0,0,0,.014.013h0a2.46,2.46,0,0,0,.837-.211,3.194,3.194,0,0,0,.927-.637,4.709,4.709,0,0,0,.772-1.008.012.012,0,0,0,0-.014.013.013,0,0,0-.014-.006" transform="translate(-496.62 -724.082)" fill="#289b38"/>
  <path id="Path_535" data-name="Path 535" d="M547.587,722.491a2.159,2.159,0,0,0-.211.06,2.87,2.87,0,0,0-1.168.794.2.2,0,0,1-.342-.124,4.508,4.508,0,0,0-.184-1.025.011.011,0,0,0-.011-.01.014.014,0,0,0-.014.007,4.052,4.052,0,0,0-.271.591,2.957,2.957,0,0,0-.11,1.883.013.013,0,0,0,.013.01h0a2.414,2.414,0,0,0,.8-.3,3.191,3.191,0,0,0,.847-.74,4.718,4.718,0,0,0,.663-1.122.013.013,0,0,0,0-.014.014.014,0,0,0-.013,0" transform="translate(-518.221 -686.293)" fill="#289b38"/>
  <path id="Path_536" data-name="Path 536" d="M564.7,679.453a3.2,3.2,0,0,0-1.281.959.2.2,0,0,1-.35-.1,4.45,4.45,0,0,0-.287-1.053.013.013,0,0,0-.012-.009h0a.015.015,0,0,0-.013.009,4.9,4.9,0,0,0-.212.661,3.129,3.129,0,0,0,.081,1.894.015.015,0,0,0,.013.008h0a2.484,2.484,0,0,0,.771-.384,3.161,3.161,0,0,0,.766-.82,4.63,4.63,0,0,0,.536-1.15.013.013,0,0,0,0-.014.012.012,0,0,0-.014,0" transform="translate(-534.625 -645.502)" fill="#289b38"/>
  <path id="Path_537" data-name="Path 537" d="M576.82,635.814a3.189,3.189,0,0,0-1.15,1.108.2.2,0,0,1-.2.09.2.2,0,0,1-.161-.147,4.453,4.453,0,0,0-.414-1.034.015.015,0,0,0-.014-.007.015.015,0,0,0-.011.01,4.426,4.426,0,0,0-.135.669,3.074,3.074,0,0,0,.323,1.9.013.013,0,0,0,.012.007h0a2.387,2.387,0,0,0,.718-.474,3.162,3.162,0,0,0,.659-.905,4.726,4.726,0,0,0,.389-1.206.012.012,0,0,0-.006-.014.012.012,0,0,0-.014,0" transform="translate(-546.282 -604.237)" fill="#289b38"/>
  <path id="Path_538" data-name="Path 538" d="M582.29,589.31a.2.2,0,0,1-.365-.023,3.457,3.457,0,0,0-.511-.937.014.014,0,0,0-.014,0,.015.015,0,0,0-.01.01,3.946,3.946,0,0,0-.072.682,2.891,2.891,0,0,0,.534,1.817.015.015,0,0,0,.011.006h.006a2.386,2.386,0,0,0,.662-.55,3.149,3.149,0,0,0,.55-.971,4.652,4.652,0,0,0,.25-1.243.014.014,0,0,0-.008-.012.015.015,0,0,0-.014,0,3.161,3.161,0,0,0-1.02,1.226" transform="translate(-552.563 -558.891)" fill="#289b38"/>
  <path id="Path_539" data-name="Path 539" d="M583.952,541.98a.2.2,0,0,1-.188-.11,4.124,4.124,0,0,0-.583-.846.013.013,0,0,0-.024.009,3.539,3.539,0,0,0,.686,2.4.016.016,0,0,0,.011,0h.007a2.382,2.382,0,0,0,.6-.61,3.092,3.092,0,0,0,.45-1.019,4.616,4.616,0,0,0,.126-1.262.015.015,0,0,0-.008-.013.015.015,0,0,0-.015,0,3.152,3.152,0,0,0-.893,1.318.2.2,0,0,1-.174.13" transform="translate(-554.307 -513.716)" fill="#289b38"/>
  <path id="Path_540" data-name="Path 540" d="M580.482,493.757a.2.2,0,0,1-.2-.09,4.211,4.211,0,0,0-.643-.77.017.017,0,0,0-.016,0,.014.014,0,0,0-.006.014,3.616,3.616,0,0,0,.889,2.31l.008,0a.017.017,0,0,0,.01,0,2.371,2.371,0,0,0,.55-.673,3.119,3.119,0,0,0,.35-1.06,4.649,4.649,0,0,0,0-1.268.016.016,0,0,0-.01-.011.013.013,0,0,0-.013,0,3.156,3.156,0,0,0-.76,1.4.2.2,0,0,1-.161.146" transform="translate(-550.948 -467.808)" fill="#289b38"/>
  <path id="Path_541" data-name="Path 541" d="M573.234,447.923a.2.2,0,0,1-.2-.081,4.222,4.222,0,0,0-.7-.757.014.014,0,0,0-.015,0,.011.011,0,0,0-.005.013,4.762,4.762,0,0,0,.115.673,3.072,3.072,0,0,0,.913,1.6.012.012,0,0,0,.009,0,.011.011,0,0,0,.009,0,2.355,2.355,0,0,0,.507-.689,3.106,3.106,0,0,0,.3-1.075,4.658,4.658,0,0,0-.058-1.267.013.013,0,0,0-.01-.011.015.015,0,0,0-.014,0,3.158,3.158,0,0,0-.692,1.432.2.2,0,0,1-.154.154" transform="translate(-544.006 -424.226)" fill="#289b38"/>
  <path id="Path_542" data-name="Path 542" d="M560.938,401.5a.2.2,0,0,1-.211-.052,4.217,4.217,0,0,0-.81-.661.017.017,0,0,0-.016,0,.012.012,0,0,0,0,.014,4.415,4.415,0,0,0,.2.645,2.952,2.952,0,0,0,1.15,1.478h.008a.015.015,0,0,0,.011,0,2.426,2.426,0,0,0,.408-.752,3.117,3.117,0,0,0,.15-1.105,4.633,4.633,0,0,0-.234-1.245c0-.005-.006-.009-.012-.009a.011.011,0,0,0-.013.006,3.142,3.142,0,0,0-.49,1.514.2.2,0,0,1-.131.173" transform="translate(-532.212 -380.022)" fill="#289b38"/>
  <path id="Path_543" data-name="Path 543" d="M544.057,356.9a4.229,4.229,0,0,0-.874-.573.016.016,0,0,0-.015,0,.015.015,0,0,0,0,.014,4.435,4.435,0,0,0,.263.62,2.952,2.952,0,0,0,1.295,1.354h.006a.013.013,0,0,0,.011-.007,2.366,2.366,0,0,0,.327-.785,3.117,3.117,0,0,0,.035-1.115,4.666,4.666,0,0,0-.361-1.217.016.016,0,0,0-.011-.008.014.014,0,0,0-.013.008,3.138,3.138,0,0,0-.329,1.555.2.2,0,0,1-.329.155" transform="translate(-516.316 -337.628)" fill="#289b38"/>
  <path id="Path_544" data-name="Path 544" d="M521.659,314.712a.016.016,0,0,0,0,.014,3.889,3.889,0,0,0,.325.61,2.924,2.924,0,0,0,1.485,1.208h.005a.014.014,0,0,0,.011-.009,2.348,2.348,0,0,0,.233-.82,3.13,3.13,0,0,0-.1-1.111,4.692,4.692,0,0,0-.5-1.171.013.013,0,0,0-.013-.006.016.016,0,0,0-.013.009,3.142,3.142,0,0,0-.143,1.58.2.2,0,0,1-.319.184,3.146,3.146,0,0,0-.956-.5.013.013,0,0,0-.014,0" transform="translate(-495.884 -297.964)" fill="#289b38"/>
  <path id="Path_545" data-name="Path 545" d="M495.585,276.789a.016.016,0,0,0,0,.015,4.5,4.5,0,0,0,.454.568,2.99,2.99,0,0,0,1.621.955h0a.014.014,0,0,0,.013-.009,2.34,2.34,0,0,0,.1-.845,3.143,3.143,0,0,0-.276-1.081,4.675,4.675,0,0,0-.668-1.056.015.015,0,0,0-.015,0,.014.014,0,0,0-.01.011,3.46,3.46,0,0,0,.1,1.565.2.2,0,0,1-.3.221,2.222,2.222,0,0,0-1-.345.013.013,0,0,0-.013.007" transform="translate(-471.113 -261.769)" fill="#289b38"/>
  <path id="Path_546" data-name="Path 546" d="M466.569,242.589a.2.2,0,0,1-.219.05,3.033,3.033,0,0,0-.963-.178h-.075a.011.011,0,0,0-.011.008.012.012,0,0,0,0,.014,5.1,5.1,0,0,0,.569.512,2.869,2.869,0,0,0,1.662.664h.034a.015.015,0,0,0,.013-.012,2.556,2.556,0,0,0-.056-.869,3.232,3.232,0,0,0-.45-1.029,4.659,4.659,0,0,0-.823-.938.014.014,0,0,0-.015,0,.012.012,0,0,0-.008.012,3.121,3.121,0,0,0,.366,1.54.2.2,0,0,1-.029.224" transform="translate(-442.343 -228.974)" fill="#289b38"/>
  <path id="Path_547" data-name="Path 547" d="M90.595,801.645a.868.868,0,0,0,.093,0,.013.013,0,0,0,.013-.012,3.612,3.612,0,0,0-.943-2.319.012.012,0,0,0-.014,0,.015.015,0,0,0-.01.011,3.282,3.282,0,0,0,.064,1.016.2.2,0,0,1-.3.215,3.237,3.237,0,0,0-1.52-.513.012.012,0,0,0-.009,0,.02.02,0,0,0,0,.016,4.751,4.751,0,0,0,.876.923,3.2,3.2,0,0,0,.99.539,2.529,2.529,0,0,0,.761.125" transform="translate(-83.871 -759.558)" fill="#289b38"/>
  <path id="Path_548" data-name="Path 548" d="M65.987,764.528h0a.014.014,0,0,0,.013-.011,3.048,3.048,0,0,0-.335-1.816,4.564,4.564,0,0,0-.35-.591.012.012,0,0,0-.014-.005s-.008.005-.01.01a3.637,3.637,0,0,0-.05,1.024.2.2,0,0,1-.315.178,3.206,3.206,0,0,0-1.461-.669.014.014,0,0,0-.014.021,4.714,4.714,0,0,0,.776,1.009,3.213,3.213,0,0,0,.925.639,2.47,2.47,0,0,0,.837.21" transform="translate(-60.576 -724.216)" fill="#289b38"/>
  <path id="Path_549" data-name="Path 549" d="M46.05,725.033h0a.015.015,0,0,0,.013-.01,2.886,2.886,0,0,0-.1-1.879,4.111,4.111,0,0,0-.284-.609.014.014,0,0,0-.025,0,4.156,4.156,0,0,0-.179,1.035.2.2,0,0,1-.337.135,3.267,3.267,0,0,0-1.174-.764,1.649,1.649,0,0,0-.2-.066.014.014,0,0,0-.014,0,.015.015,0,0,0,0,.014,4.627,4.627,0,0,0,.65,1.092,3.13,3.13,0,0,0,.845.739,2.452,2.452,0,0,0,.807.306" transform="translate(-41.859 -686.619)" fill="#289b38"/>
  <path id="Path_550" data-name="Path 550" d="M31.194,683.195h0a.015.015,0,0,0,.012-.008,3.084,3.084,0,0,0-.092-2.527.014.014,0,0,0-.025,0,4.136,4.136,0,0,0-.3,1.02.194.194,0,0,1-.143.163.2.2,0,0,1-.206-.067,3.245,3.245,0,0,0-1.077-.893c-.062-.033-.125-.062-.189-.089a.016.016,0,0,0-.015,0,.015.015,0,0,0,0,.014,3.189,3.189,0,0,0,2.041,2.384" transform="translate(-27.994 -646.833)" fill="#289b38"/>
  <path id="Path_551" data-name="Path 551" d="M19.1,639.063a2.433,2.433,0,0,0,.739.45h0a.012.012,0,0,0,.011-.007,2.644,2.644,0,0,0,.331-1.94,2.8,2.8,0,0,0-.214-.629.013.013,0,0,0-.011-.008.013.013,0,0,0-.012.007,4.048,4.048,0,0,0-.4,1.034l.013,0h0l-.013,0a.2.2,0,0,1-.357.069A3.181,3.181,0,0,0,18,636.968a.015.015,0,0,0-.014,0,.015.015,0,0,0,0,.015,4.667,4.667,0,0,0,.43,1.2,3.159,3.159,0,0,0,.69.884" transform="translate(-17.384 -605.297)" fill="#289b38"/>
  <path id="Path_552" data-name="Path 552" d="M16.77,591.48a.009.009,0,0,0,.006,0,.014.014,0,0,0,.011-.007,3.042,3.042,0,0,0,.56-2.486.022.022,0,0,0-.01-.011.018.018,0,0,0-.014.005,4.1,4.1,0,0,0-.564.934.194.194,0,0,1-.179.122h0a.2.2,0,0,1-.18-.117,3.226,3.226,0,0,0-.822-1.125,1.992,1.992,0,0,0-.163-.132.012.012,0,0,0-.014,0,.014.014,0,0,0-.008.013,3.155,3.155,0,0,0,1.38,2.8" transform="translate(-14.92 -559.445)" fill="#289b38"/>
  <path id="Path_553" data-name="Path 553" d="M18.209,543.91a.014.014,0,0,0,.008,0,.011.011,0,0,0,.008,0,2.352,2.352,0,0,0,.681-1.339,3.61,3.61,0,0,0-.005-1.154.011.011,0,0,0-.009-.01.011.011,0,0,0-.013,0,1.709,1.709,0,0,0-.506.88.2.2,0,0,1-.382.028,3.215,3.215,0,0,0-.7-1.2c-.047-.05-.1-.1-.15-.15a.015.015,0,0,0-.014,0,.013.013,0,0,0-.008.012,3.142,3.142,0,0,0,1.085,2.937" transform="translate(-16.552 -514.12)" fill="#289b38"/>
  <path id="Path_554" data-name="Path 554" d="M20.805,494.492a2.39,2.39,0,0,0,.539.666.015.015,0,0,0,.009,0,.014.014,0,0,0,.009,0,2.819,2.819,0,0,0,.823-1.664,4.348,4.348,0,0,0,.057-.7.013.013,0,0,0-.008-.012.016.016,0,0,0-.015,0,2.926,2.926,0,0,0-.614.812.2.2,0,0,1-.2.112.2.2,0,0,1-.171-.15,3.156,3.156,0,0,0-.76-1.4.012.012,0,0,0-.014,0,.013.013,0,0,0-.009.011,4.629,4.629,0,0,0,0,1.267,3.119,3.119,0,0,0,.35,1.06" transform="translate(-19.687 -467.753)" fill="#289b38"/>
  <path id="Path_555" data-name="Path 555" d="M27.059,448.033a2.362,2.362,0,0,0,.5.685.012.012,0,0,0,.019,0,3.125,3.125,0,0,0,.977-1.679,3.571,3.571,0,0,0,.085-.616.015.015,0,0,0-.007-.013.017.017,0,0,0-.015,0,4.032,4.032,0,0,0-.73.78.2.2,0,0,1-.356-.074,3.163,3.163,0,0,0-.692-1.433.015.015,0,0,0-.014,0,.011.011,0,0,0-.009.01,4.635,4.635,0,0,0-.059,1.267,3.138,3.138,0,0,0,.3,1.076" transform="translate(-25.701 -423.605)" fill="#289b38"/>
  <path id="Path_556" data-name="Path 556" d="M38.2,402.494a.012.012,0,0,0,.01,0h.007a2.832,2.832,0,0,0,1.224-1.555,3.032,3.032,0,0,0,.135-.62.014.014,0,0,0-.005-.015.02.02,0,0,0-.015,0,3.51,3.51,0,0,0-.842.7.2.2,0,0,1-.35-.11,3.131,3.131,0,0,0-.509-1.508.013.013,0,0,0-.013-.006.016.016,0,0,0-.011.009,4.684,4.684,0,0,0-.215,1.253,3.139,3.139,0,0,0,.165,1.1,2.359,2.359,0,0,0,.419.746" transform="translate(-36.031 -379.624)" fill="#289b38"/>
  <path id="Path_557" data-name="Path 557" d="M53.606,358.224a.012.012,0,0,0,.011.007h.007a3.019,3.019,0,0,0,1.409-1.4,2.906,2.906,0,0,0,.214-.579.014.014,0,0,0,0-.014.018.018,0,0,0-.015,0,4.1,4.1,0,0,0-.926.586.2.2,0,0,1-.327-.158,3.125,3.125,0,0,0-.315-1.559.013.013,0,0,0-.012-.007.014.014,0,0,0-.012.007,4.659,4.659,0,0,0-.372,1.213,3.144,3.144,0,0,0,.023,1.115,2.359,2.359,0,0,0,.319.788" transform="translate(-50.863 -337.552)" fill="#289b38"/>
  <path id="Path_558" data-name="Path 558" d="M73.538,316.88a.012.012,0,0,0,.012.008h0a2.856,2.856,0,0,0,1.5-1.128,4.276,4.276,0,0,0,.388-.647.01.01,0,0,0,0-.013.011.011,0,0,0-.013-.006,1.92,1.92,0,0,0-.964.471.2.2,0,0,1-.233.034.2.2,0,0,1-.1-.213,3.115,3.115,0,0,0-.078-1.585c0-.006-.006-.009-.011-.01a.015.015,0,0,0-.014.007,4.675,4.675,0,0,0-.55,1.149,3.116,3.116,0,0,0-.144,1.1,2.373,2.373,0,0,0,.2.832" transform="translate(-69.968 -298.307)" fill="#289b38"/>
  <path id="Path_559" data-name="Path 559" d="M98.246,277.944h0a3.566,3.566,0,0,0,2.058-1.524.015.015,0,0,0,0-.014.016.016,0,0,0-.014-.008,2.277,2.277,0,0,0-.987.343.2.2,0,0,1-.23-.005.2.2,0,0,1-.069-.219,3.113,3.113,0,0,0,.115-1.583.013.013,0,0,0-.009-.011.013.013,0,0,0-.014,0,3.138,3.138,0,0,0-.864,3.008.017.017,0,0,0,.013.009" transform="translate(-93.52 -261.382)" fill="#289b38"/>
  <path id="Path_560" data-name="Path 560" d="M126.774,243.556h.068a2.816,2.816,0,0,0,1.563-.672,6.116,6.116,0,0,0,.584-.513.01.01,0,0,0,0-.014.014.014,0,0,0-.012-.009,3.909,3.909,0,0,0-.992.18.2.2,0,0,1-.239-.279,3.121,3.121,0,0,0,.367-1.543.018.018,0,0,0-.009-.013.014.014,0,0,0-.015,0,4.753,4.753,0,0,0-.85.957,3.142,3.142,0,0,0-.445,1.024,2.307,2.307,0,0,0-.037.866.013.013,0,0,0,.012.012" transform="translate(-120.701 -228.862)" fill="#289b38"/>
  <path id="Path_561" data-name="Path 561" d="M162.582,214.025a4.222,4.222,0,0,0-1.018.061.2.2,0,0,1-.206-.3,3.14,3.14,0,0,0,.516-1.5.013.013,0,0,0-.008-.012.016.016,0,0,0-.015,0,3.167,3.167,0,0,0-1.6,2.683.013.013,0,0,0,.013.013c.033,0,.066,0,.1,0a3.871,3.871,0,0,0,2.229-.926.015.015,0,0,0,0-.015.012.012,0,0,0-.012-.009" transform="translate(-152.535 -201.864)" fill="#289b38"/>
  <path id="Path_562" data-name="Path 562" d="M197.87,197.226a3.3,3.3,0,0,0-.531-.111,4.149,4.149,0,0,0-.5-.036h0a.2.2,0,0,1-.128-.35,3.2,3.2,0,0,0,.891-1.136.012.012,0,0,0,0-.014.015.015,0,0,0-.015,0c-1.768.6-2.155,1.632-2.239,2.049a.014.014,0,0,0,.01.016,2.514,2.514,0,0,0,.7.094,3.658,3.658,0,0,0,1.191-.216,4.677,4.677,0,0,0,.628-.267.013.013,0,0,0,.009-.013.014.014,0,0,0-.011-.011" transform="translate(-185.88 -185.999)" fill="#289b38"/>
  <path id="Path_563" data-name="Path 563" d="M240.209,188.655a4.385,4.385,0,0,0-.985-.331.2.2,0,0,1-.05-.371,2.716,2.716,0,0,0,1.017-.777.013.013,0,0,0,0-.015.012.012,0,0,0-.013-.006,3.646,3.646,0,0,0-2.081.887,1.82,1.82,0,0,0-.416.607.014.014,0,0,0,.007.018,2.812,2.812,0,0,0,1.182.241,3.978,3.978,0,0,0,.682-.062,4.742,4.742,0,0,0,.654-.165.015.015,0,0,0,0-.026" transform="translate(-226.101 -178.001)" fill="#289b38"/>
  <path id="Path_564" data-name="Path 564" d="M285.649,186.945a.2.2,0,0,1,.012-.374,3.43,3.43,0,0,0,1.126-.55.013.013,0,0,0,0-.015.019.019,0,0,0-.013-.01,3.646,3.646,0,0,0-2.179.429,1.849,1.849,0,0,0-.54.5.013.013,0,0,0,0,.01.012.012,0,0,0,.006.009,3.289,3.289,0,0,0,1.977.564c.185,0,.354-.01.492-.024a.011.011,0,0,0,.011-.008.013.013,0,0,0,0-.015,3.5,3.5,0,0,0-.891-.521" transform="translate(-270.16 -176.889)" fill="#289b38"/>
  <path id="Path_565" data-name="Path 565" d="M332.778,191.7a.2.2,0,0,1,.088-.359,3.949,3.949,0,0,0,1.2-.316.016.016,0,0,0,.008-.014.015.015,0,0,0-.01-.012,3.64,3.64,0,0,0-2.2-.011,1.864,1.864,0,0,0-.635.387.014.014,0,0,0,0,.019,3.136,3.136,0,0,0,2.323,1.06h0a.015.015,0,0,0,.013-.008.02.02,0,0,0,0-.016,4.12,4.12,0,0,0-.787-.73" transform="translate(-314.971 -181.49)" fill="#289b38"/>
  <path id="Path_566" data-name="Path 566" d="M432.658,220.565a.015.015,0,0,0,.012-.011,2.64,2.64,0,0,0-.172-.965,2.437,2.437,0,0,0-1.6-1.425.014.014,0,0,0-.013,0,.012.012,0,0,0,0,.013,4.056,4.056,0,0,0,.63,1.184.2.2,0,0,1-.2.315,2.721,2.721,0,0,0-1.009-.015.014.014,0,0,0-.012.011.015.015,0,0,0,.006.014,4.7,4.7,0,0,0,2.261.881h.1" transform="translate(-409.08 -207.46)" fill="#289b38"/>
  <path id="Path_567" data-name="Path 567" d="M395.217,224.971a.014.014,0,0,0,0-.012,2.037,2.037,0,0,0-1.679-.642,2.986,2.986,0,0,0-.717.137.013.013,0,0,0-.01.01.015.015,0,0,0,.006.013,2.7,2.7,0,0,0,1.666.625h.095a2.29,2.29,0,0,0,.635-.119.015.015,0,0,0,.008-.01" transform="translate(-373.476 -213.301)" fill="#289b38"/>
  <path id="Path_568" data-name="Path 568" d="M375.943,201.988a.014.014,0,0,0,.007.012,2.1,2.1,0,0,0,1.236.357,3.6,3.6,0,0,0,.645-.062,5.015,5.015,0,0,0,.877-.257.015.015,0,0,0,0-.026,3.126,3.126,0,0,0-.983-.355,2.63,2.63,0,0,0-1.049.033,2.735,2.735,0,0,0-.727.285.014.014,0,0,0-.007.012" transform="translate(-357.45 -191.743)" fill="#289b38"/>
  <path id="Path_569" data-name="Path 569" d="M247.1,885.594a1.149,1.149,0,0,0,.035-.284,1.174,1.174,0,0,0-.029-.26,2.607,2.607,0,0,0,1.465-.74,1.2,1.2,0,0,0,.27-.934.962.962,0,0,0-.436-.723,178.9,178.9,0,0,0-4.874,0,.965.965,0,0,0-.437.723,1.207,1.207,0,0,0,.27.932,2.612,2.612,0,0,0,1.474.742,1.129,1.129,0,0,0-.029.258,1.167,1.167,0,0,0,.033.276,4.727,4.727,0,0,1-2.69,1.311,2.017,2.017,0,0,0,.412.493,5.254,5.254,0,0,0,2.546-1.3,1.26,1.26,0,0,0,.13.123,2.428,2.428,0,0,1-1.992,1.618,3.391,3.391,0,0,0,.919.263,2.719,2.719,0,0,0,1.575-1.644,1.154,1.154,0,0,0,.23.022,1.167,1.167,0,0,0,.22-.021,2.721,2.721,0,0,0,1.574,1.642,3.381,3.381,0,0,0,.92-.262,2.426,2.426,0,0,1-1.99-1.611,1.449,1.449,0,0,0,.134-.125,5.277,5.277,0,0,0,2.543,1.294,2,2,0,0,0,.41-.493,4.731,4.731,0,0,1-2.682-1.3" transform="translate(-230.347 -838.515)" fill="#0090d2"/>
  <path id="Path_570" data-name="Path 570" d="M341.214,893.6a.412.412,0,0,1,.191.324.663.663,0,0,1-.15.521,1.583,1.583,0,0,1-.709.433,1.024,1.024,0,0,0,.054-.822,1.252,1.252,0,0,0-.44-.582,1.784,1.784,0,0,1,1.052.127" transform="translate(-323.458 -849.001)" fill="#fff"/>
  <path id="Path_571" data-name="Path 571" d="M297.762,898.662c.205-.554.978-.562,1.009-.562a1.652,1.652,0,0,1,.443.073.824.824,0,0,1,.567.489.7.7,0,0,1-.234.674,1.161,1.161,0,0,0-1.549.005.711.711,0,0,1-.237-.68" transform="translate(-283.153 -853.415)" fill="#fff"/>
  <path id="Path_572" data-name="Path 572" d="M272.607,894.924a1.6,1.6,0,0,1-.71-.433.666.666,0,0,1-.15-.521.419.419,0,0,1,.191-.324,1.334,1.334,0,0,1,.7-.146c.115,0,.236.007.357.018a1.249,1.249,0,0,0-.438.581,1.026,1.026,0,0,0,.055.823" transform="translate(-258.458 -849.045)" fill="#fff"/>
  <path id="Path_573" data-name="Path 573" d="M306.28,928.584a.615.615,0,1,1,.614.615.615.615,0,0,1-.614-.615" transform="translate(-291.272 -881.792)" fill="#fff"/>
  <path id="Path_574" data-name="Path 574" d="M335.747,957.285a5.26,5.26,0,0,1-2.543-1.295,1.1,1.1,0,0,1-.134.125,2.431,2.431,0,0,0,1.99,1.612,2.688,2.688,0,0,0,.687-.442" transform="translate(-316.723 -908.411)" fill="#fff"/>
  <path id="Path_575" data-name="Path 575" d="M252.869,955.9a5.275,5.275,0,0,1-2.549,1.3,2.676,2.676,0,0,0,.686.441A2.425,2.425,0,0,0,253,956.023a1.214,1.214,0,0,1-.13-.123" transform="translate(-238.108 -908.326)" fill="#fff"/>
</svg>
