<?xml version="1.0" encoding="utf-8"?>
<!-- Generator: Adobe Illustrator 24.2.1, SVG Export Plug-In . SVG Version: 6.00 Build 0)  -->
<svg version="1.1" id="Layer_1" xmlns="http://www.w3.org/2000/svg" xmlns:xlink="http://www.w3.org/1999/xlink" x="0px" y="0px"
	 width="1000px" height="163px" viewBox="0 0 1000 163" style="enable-background:new 0 0 1000 163;" xml:space="preserve">
<path d="M861.1,26.8v109.5h109.6V26.8H861.1z M839.8,5.5h152.1v152.1H839.8V5.5z M873.2,121.1L931,42h27.4l-57.8,79.1L873.2,121.1z"
	/>
<path d="M38.5,70.6c26.5,0,41.9,12.1,41.9,43.1c0,26.1-11.7,44-42.1,44H7V70.6H38.5z M34.4,83.1H21.8v62.1h12.5
	c22.6,0,30-9.1,30-31.8S55.6,83.1,34.4,83.1z"/>
<path d="M128.8,139.7h13.8c-1.8,9.8-9.5,19.3-26.8,19.3C96.2,159,87,145.3,87,127.8c0-18.5,9.4-32,28.7-32
	c20.8,0,27.3,14.1,27.3,29.3v6.7h-42c0.8,11.1,5.8,16.1,14.7,16.1C126.1,147.9,128.2,143.1,128.8,139.7z M101.2,121.5h28.1
	c-0.4-9.4-4.1-14.7-13.5-14.7C107.4,106.8,102.5,111,101.2,121.5z"/>
<path d="M192.2,150.6c-3.4,4.4-9.2,8.4-19.3,8.4c-14.5,0-21.9-7.8-21.9-22.6V97.2h13.9V133c0,8.5,2.2,14.6,11.7,14.6
	c5.9,0,11.2-3.5,13.4-8.9c0.9-2.7,1.2-5.6,1.1-8.5v-33h13.9v60.5h-12.4L192.2,150.6z"/>
<path d="M252.5,157.4c-2.9,0.5-5.9,0.8-8.8,0.7c-14.2,0-20.5-3.1-20.5-20.1v-30.2h-11.4V97.2h11.4v-9.3l13.9-7.8v17.1H252v10.6
	h-14.9v29.2c0,8.4,1.9,10.5,9.9,10.5c1.9,0,3.7-0.2,5.5-0.6V157.4z"/>
<path d="M271.5,139.3c0.2,3.5,1.5,9.1,11.5,9.2c8.5,0,11.5-3.2,11.5-7.5c0-3.9-2.4-5.8-7.5-6.9l-13.1-3c-8.5-1.9-15.2-6.5-15.2-17.1
	c0-11.9,9.8-18.2,23.5-18.2c16.2,0,24.4,8.2,25,19.7H294c-0.4-3.2-2.8-9.2-12.5-9.2c-6.8,0-9.8,2.9-9.8,6.8c0,4.5,3,6.2,8.2,7.3
	l12.7,2.6c10.3,2.1,15.3,8.4,15.3,17.5c0,9.4-6.5,18.6-24.7,18.6c-17.9-0.1-24.8-8.5-25.4-19.7L271.5,139.3z"/>
<path d="M328.6,127.7c0,12,3.6,20.2,13.8,20.2c10.4,0,12-6.6,12.4-11.3h13.9c-1.4,13.8-10.1,22.4-26.1,22.4
	c-22.2,0-28.1-14.7-28.1-31.3c0-16.4,6-31.8,28-31.8c17.6,0,25.3,9.5,26.4,22.2h-13.9c-0.6-4.1-2-11.2-12.5-11.2
	C333.3,107,328.6,113.5,328.6,127.7z"/>
<path d="M390.4,157.7h-13.9V70.6h13.8v32.7c3.6-3.9,9.3-7.5,19.1-7.5c14,0,21.1,8.5,21.1,21.2v40.7h-13.9v-36.1
	c0-9.9-4.1-13.8-11.2-13.8c-5.2-0.1-10,2.4-12.8,6.7c-1.8,2.8-2.1,5.4-2.1,9.8V157.7z"/>
<path d="M479.5,139.7h13.8c-1.8,9.8-9.5,19.3-26.8,19.3c-19.5,0-28.7-13.6-28.7-31.2c0-18.5,9.4-32,28.7-32
	c20.8,0,27.3,14.1,27.3,29.3v6.7h-42c0.8,11.1,5.8,16.1,14.7,16.1C476.8,147.9,478.9,143.1,479.5,139.7z M452,121.5h28.1
	c-0.4-9.4-4.1-14.7-13.5-14.7C458.1,106.8,453.3,111,452,121.5z"/>
<path d="M527,157.7V70.6h34.4c20.4,0,28.1,9.2,28.1,22.2c0,9.5-5.1,16.5-11.8,18.7c8,1.3,15.9,7.9,15.9,20.2
	c0,16-8.2,25.9-29.7,25.9H527z M558.7,82.9h-16.8V106H559c11.2,0,14.7-3.5,14.7-11.5C573.7,86.9,570.3,82.9,558.7,82.9z
	 M541.8,118.4v27h19.7c11.2,0,16.2-3.8,16.2-13.5s-5.1-13.4-16.2-13.4L541.8,118.4z"/>
<path d="M652.3,157.7h-12l-0.4-7.1c-3.4,4.4-9.7,8.4-19.4,8.4c-12,0-20.6-7-20.6-19.1c0-11.5,8.5-19.4,25-19.4h13.8v-4.2
	c0-7.5-3.9-9.8-11.2-9.8c-8.5,0-10.6,3.8-11.1,7.7h-14c2-10.7,9.2-18.4,25.4-18.4c16.6,0,24.3,6.6,24.3,21.4L652.3,157.7z
	 M638.8,134.8v-4H625c-7.9,0-11,3.1-11,8.7c0,4.8,2.1,8.4,10,8.4s12.7-3.9,14.2-8.5C638.7,137.9,638.9,136.4,638.8,134.8
	L638.8,134.8z"/>
<path d="M677.1,103.3c3.6-3.9,9.3-7.5,19.1-7.5c14,0,21.1,8.5,21.1,21.2v40.7h-13.9v-36.1c0-9.9-4.1-13.8-11.2-13.8
	c-5.1-0.1-10,2.4-12.8,6.7c-1.8,2.8-2.1,5.8-2.1,10.1v33.1h-13.9V97.2h13.2L677.1,103.3z"/>
<path d="M742.2,157.7h-13.9V70.6h13.9L742.2,157.7z M742.7,123.8l23.8-26.7h16l-23.8,26.4l27.1,34.2H769L742.7,123.8z"/>
</svg>
